<?xml version="1.0" encoding="utf-8"?>
<!-- Generator: Adobe Illustrator 25.4.1, SVG Export Plug-In . SVG Version: 6.00 Build 0)  -->
<svg version="1.1" id="Layer_1" xmlns="http://www.w3.org/2000/svg" xmlns:xlink="http://www.w3.org/1999/xlink" x="0px" y="0px"
	 viewBox="0 0 530.3 76.1" style="enable-background:new 0 0 530.3 76.1;" xml:space="preserve">
<style type="text/css">
	.st0{display:none;}
	.st1{display:inline;}
	.st2{fill:#E4002B;}
	.st3{fill:#D6D1C4;}
	.st4{font-family:'ArialMT';}
	.st5{font-size:11.5373px;}
	.st6{fill:#FFFFFF;}
	.st7{font-size:11.4815px;}
</style>
<g id="Layer_2_00000118366301285716258410000002401295037241274498_" class="st0">
	<g id="Layer_1-2" class="st1">
		<path class="st2" d="M195.9,36.4c-2.7,0-4.8,2.2-4.8,4.8s2.2,4.8,4.8,4.8c2.7,0,4.8-2.2,4.8-4.8c0,0,0,0,0,0
			C200.7,38.6,198.6,36.4,195.9,36.4"/>
		<path class="st2" d="M132.5,26H100c0,0-1.6-0.1-1.6-1.5V6.6c0,0,0-0.6-0.5-0.3c-0.2,0.1-8.6,5.4-8.6,5.4c-0.1,0.1-0.2,0.2-0.2,0.3
			v39.7c0,0-0.1,4.5,3.8,4.5h4.3v0l34.5,0c0,0,4.9,0.1,5-4.8V29.5C136.8,29.5,136.6,26,132.5,26 M127.6,48.2c0,0.9-0.7,1.6-1.6,1.6
			c0,0,0,0,0,0h-26c-0.9,0-1.6-0.7-1.6-1.6c0,0,0,0,0,0V33.8c0-0.9,0.7-1.6,1.6-1.6c0,0,0,0,0,0h26c0.9,0,1.6,0.7,1.6,1.6
			c0,0,0,0,0,0V48.2z"/>
		<path class="st2" d="M208.1,56.3h32.4c0,0,1.6,0.1,1.6,1.5v17.9c0,0,0,0.6,0.5,0.3c0.2-0.1,8.6-5.4,8.6-5.4
			c0.1-0.1,0.2-0.2,0.2-0.3V30.7c0,0,0.1-4.5-3.8-4.5h-4.3v0l-34.5,0c0,0-4.9-0.1-5,4.8v21.8C203.7,52.8,203.9,56.4,208.1,56.3
			 M212.9,34.1c0-0.9,0.7-1.6,1.6-1.6c0,0,0,0,0,0h26c0.9,0,1.6,0.7,1.6,1.6c0,0,0,0,0,0v14.4c0,0.9-0.7,1.6-1.6,1.6h-26
			c-0.9,0-1.6-0.7-1.6-1.6V34.1z"/>
		<path class="st2" d="M183.3,26h-32.4c0,0-1.6-0.1-1.6-1.5V6.6c0,0,0-0.6-0.5-0.3c-0.2,0.1-8.6,5.4-8.6,5.4
			c-0.1,0.1-0.2,0.2-0.2,0.3v39.7c0,0-0.1,4.5,3.8,4.5h4.3v0l34.5,0c0,0,4.9,0.1,5-4.8V29.5C187.6,29.5,187.5,26,183.3,26
			 M178.5,48.2c0,0.9-0.7,1.6-1.6,1.6c0,0,0,0,0,0h-26c-0.9,0-1.6-0.7-1.6-1.6c0,0,0,0,0,0V33.8c0-0.9,0.7-1.6,1.6-1.6c0,0,0,0,0,0
			h26c0.9,0,1.6,0.7,1.6,1.6c0,0,0,0,0,0V48.2z"/>
		<path class="st3" d="M356.2,26.8l-0.7,2.4c1.8,0.7,2.4,1.1,2.8,1.5l-6.6,24.8l0.9,0.7c2.4-0.5,5.6-1,9.1-1.4l0.8-2.8l-4,0.2
			l6.8-25.3L356.2,26.8z"/>
		<path class="st3" d="M349.7,26.8h-9l-0.7,2.4c1.8,0.7,2.4,1.1,2.7,1.5l-1.8,6.9c-0.4,0.8-2.8,1.4-5,1.5h-15.6l3.3-12.3h-10
			l-0.7,2.4c2,0.7,2.7,1.1,3.1,1.5l-6.1,22.4c-0.2,0.5-0.6,0.5-2.8,0.7l-0.5,2c2-0.1,4.1-0.1,6.3-0.1c2.2,0,4.3,0,6.2,0.1l0.6-2
			c-2.2-0.2-3.4-0.2-3.3-0.7l2.7-10.1l0,0.1c0.2-0.8,2.5-1.4,4.7-1.6h16l-3.7,13.9l0.9,0.7c2.4-0.5,5.6-1,9.1-1.4L347,52l-4,0.2
			L349.7,26.8z"/>
		<path class="st3" d="M446.9,29.5l1.1-2.6h-13.5c-0.6,2.8-6.5,9.4-14.3,12.4l3.4-12.4h-10l-0.7,2.4c2,0.7,2.7,1.1,3.1,1.5l-6,22.4
			c-0.2,0.5-0.6,0.5-2.8,0.7l-0.5,2c2-0.1,4.1-0.1,6.3-0.1c2.2,0,4.3,0,6.2,0.1l0.6-2c-2.2-0.2-3.4-0.2-3.3-0.7L420,40
			c3.2,5.3,15.1,16,24.2,16.2l1.1-4.7c-6.8-0.6-16.1-7.1-20.4-11.5C432.2,34.7,441.2,30.3,446.9,29.5"/>
		<path class="st3" d="M530.3,26.8h-9l-0.7,2.4c1.8,0.7,2.4,1.1,2.8,1.5l-4.6,17.4c-0.1,0.3-0.3,0.7-0.5,0.7c-0.2,0-0.4-0.1-0.6-0.3
			L501,26.8h-10l-0.7,2.4c2.1,0.7,2.7,1.1,3.1,1.5l-6.1,22.4c-0.2,0.5-0.6,0.5-2.8,0.7l-0.5,2c2-0.1,4.1-0.1,6.3-0.1
			c2.2,0,4.3,0,6.3,0.1l0.6-2c-2.2-0.2-3.4-0.2-3.3-0.7l5.8-21.5c1.6,1,3.1,2.3,4.3,3.8l13.5,17.5l-0.7,2.5l0.9,0.7
			c2.4-0.5,5.6-1,9.1-1.4l0.8-2.8l-4,0.2L530.3,26.8z"/>
		<path class="st3" d="M267.1,46.2l1.9-8.5c1.7-7.6,9.4-11.5,24.5-11.5c6.7,0,12,1.1,14.2,2.5c-0.2,1.1-1.2,4.6-1.4,5.1
			c-2.3,0.6-4.6,0.6-6.9,0c-0.1,0,0.1-0.7,0.3-1.6c-2.3-1.4-6.8-2.1-13.1-2.1c-7.2,0-10.7,3.2-11.6,7.1l-1.9,7.6
			c-1.6,7.1,10.2,7.1,15.9,7.1c6.3,0,13.6-3.6,15.8-5.6l0.9,0.4l-1.7,5.7c-5.1,3.4-12.5,3.8-19.3,3.8
			C271.5,56.4,265.7,52.6,267.1,46.2"/>
		<path class="st3" d="M366.8,46.2l1.9-8.5c1.7-7.6,9.4-11.5,24.5-11.5c6.7,0,12,1.1,14.2,2.5c-0.2,1.1-1.2,4.6-1.4,5.1
			c-2.3,0.6-4.6,0.6-6.9,0c-0.1,0,0.1-0.7,0.3-1.6c-2.3-1.4-6.8-2.1-13.1-2.1c-7.2,0-10.6,3.2-11.6,7.1l-1.9,7.6
			c-1.6,7.1,10.2,7.1,15.9,7.1c6.3,0,13.6-3.6,15.8-5.6l0.9,0.4l-1.7,5.7c-5,3.4-12.5,3.8-19.3,3.8
			C371.2,56.4,365.4,52.6,366.8,46.2"/>
		<path class="st3" d="M480.6,49.3c-1.1,2.1-3.4,2.3-6.1,2.6c-3,0.4-14.7,0.7-17.5,0.8l2.8-10.4c0.5-0.7,2.8-1.2,5-1.3h4.8
			c2.5,0.1,5.3,0.7,5.6,1.6h1.3l1.4-5.3h-1.3c-0.4,1.1-3.4,1.5-6,1.6h-9.9l2.4-8.8c4.6,0,11.1-0.1,13.1,0.1c4.1,0.3,4.7,0.6,5.6,2.2
			c0.1,0.2,0.3,0.7,0.3,0.7l2.2,0l-2.2-6.2H454l-0.7,2.4c2,0.7,2.7,1.1,3.1,1.5l-6,22.4c-0.2,0.5-0.6,0.5-2.8,0.7l-0.5,2
			c2-0.1,4.2-0.2,6.4-0.2c0.7,0,1.4,0,2.1,0l0,0h25.6l2-7.6l-1.8,0L480.6,49.3z"/>
		<path class="st3" d="M37.8,0C16.8,0.1-0.1,17.3,0,38.3s17.3,37.9,38.3,37.8c21-0.1,37.9-17.3,37.8-38.3C76,16.8,58.8-0.1,37.8,0
			 M38.3,74.7C18,74.8,1.5,58.5,1.4,38.3S17.6,1.5,37.8,1.4s36.8,16.2,36.9,36.4c0,0,0,0,0,0C74.8,58.1,58.5,74.6,38.3,74.7"/>
		<path class="st2" d="M17.7,14.5c-0.3,0-0.5,0.3-0.5,0.6c0,0,0,0.1,0,0.1c0.3,0.7,0.5,1.4,0.7,2.1c0.1,0.6,0.2,1.1,0.5,1.2
			c0.7,0.2,1.4,0.6,2,1c0.5,0.4,2,2.2,2.2,2.5c0.1,0.1,0.2,0.3,0.3,0.4l0,0.5c0,0-0.8,0.9-0.8,1.1c0,0.2,0.5,0.5,0.8,0.7
			c0.3,0.2,0.7,0.5,1.2,0.1c0.2-0.2,0.5-0.3,0.7-0.4c0-0.1-0.1-0.2-0.1-0.4c-0.2,0.1-0.3,0.3-0.6,0.4c-0.2-0.3-0.2-0.7,0-0.9
			c0.3,0.1,0.5,0.1,0.8,0.2c0.2,0.3,0.2,0.4,0.1,0.6c0.5-0.3,1.2-0.6,1.8-0.9c0.8-0.4,1.6-0.7,2.4-0.8c0.5,0.1,1,0.1,1.5,0.1
			c0.6-0.1,1.3,0,1.8,0.3c0.5,0.4,0.7,0.6,1,0.6c0.4-0.1,0.8-0.1,0.7-0.5c-0.3-0.6-0.5-1.3-0.6-2c0-0.1-0.1-0.3-0.1-0.4
			c0,0-0.1,0.1-0.1,0.1c-0.2-0.2-0.2-0.5-0.1-0.8c0-0.3-0.1-0.6-0.1-0.9c-0.1-0.4-0.6-0.7-1.1-0.5c0,0-0.1,0-0.1,0.1
			c-0.5,0.3-0.9,0.7-1.2,1.3c-0.2,0.3-0.3,0.6-0.5,0.9c-0.2-0.4-0.3-0.8-0.3-1.2c0.1-0.7,0.2-1.4,0.4-2.1c0.2-0.8,0.5-1.7,0.5-2.1
			c0-0.3-0.1-0.5-0.3-0.7c-0.6-0.6-1.2-1.1-1.9-1.5c0.1,0.2,0.2,0.5,0.4,0.7c0.1,0,0.3,0,0.4,0c0.2,0.2,0.1,0.4,0,0.6
			c-0.2,0-0.5,0-0.7,0c-0.3-0.3-0.4-0.7-0.4-1.1c-0.2,0.2-0.3,0.4-0.4,0.6c-0.1,0.3-0.4,0.9-0.2,1.2c0.2,0.9,0.3,1.7,0.3,2.6
			c0.1,0.9,0.1,1.8,0,2.7c-0.1,0.3-0.1,0.6-0.6,0.4c-0.4-0.1-0.7-0.1-0.8-1v0c-0.1,0-0.2,0.1-0.3,0.1c-0.2-0.2-0.3-0.6-0.2-0.8
			c0.1,0.1,0.2,0.2,0.4,0.3c0,0,0,0,0-0.1c-0.1-1-0.2-2-0.5-2.9c-0.2-0.7-0.4-1.6-0.6-2.2c-0.2,0.2-0.2,0.4-0.1,0.7h0c0,0,0,0,0,0
			c0.1,0,0.3,0.1,0.2,0.4c-0.1-0.2-0.2-0.3-0.2-0.4c0,0,0,0,0,0v0c-0.2,0-0.5,0-0.7,0c-0.2-0.5,0.3-0.5,0.4-0.7
			c0.2-0.4-0.3-0.8-0.2-1.2c0,0,0,0,0,0c-0.3,0-0.4-0.3-0.6-0.5c-0.3-0.2-0.6-0.4-1-0.5c-0.4-0.1-0.8-0.2-1.2-0.3
			c-0.2,0-0.3,0.1-0.3,0.2c0.2,0.2,0.3,0.5,0.1,0.7c0,0-0.1-0.1-0.1-0.1c0,0.2,0,0.5,0,0.8c0.1-0.2,0.2-0.4,0.4-0.6
			c0.3,0.5,0.3,0.7,0,0.9C22,14,21.9,14,21.8,13.9l0,0.1c0,0.5,0,0.6,0,0.7c0,0.2,0.1,0.3,0.4,0.5c0.2,0.2,0.4,0.5,0.5,0.9
			c0.2,0.3,0.5,1,0.7,1.6c0.3,0.7,0.6,1.4,0.7,2.2c0.1,0.4,0.2,1,0.1,0.9c-0.5-0.2-1-0.5-1.3-1c-0.1-0.2-0.3-0.5-0.5-0.8
			c0,0-0.1,0-0.1,0c-0.3-0.4-0.6-0.6-0.6-1.2c0,0,0.1,0,0.1,0.1c-0.1-0.2-0.2-0.3-0.2-0.5c-0.4-0.7-1-1.9-1.2-2.3
			c-0.2-0.3-0.3-0.6-0.5-0.6C20,14.6,18,14.4,17.7,14.5 M33.7,23.6c-0.1-0.2-0.1-0.3-0.2-0.5C33.8,23.2,33.8,23.4,33.7,23.6
			 M32.6,20.9L32.6,20.9C32.6,20.9,32.7,20.9,32.6,20.9c0-0.3,0-0.5,0-0.7c0.3,0,0.3,0.2,0.2,0.3C32.8,20.7,32.7,20.8,32.6,20.9
			C32.7,20.9,32.7,20.9,32.6,20.9L32.6,20.9c0,0.1,0,0.3,0,0.5c-0.2,0-0.3,0-0.5,0c0-0.2,0-0.3,0-0.5C32.4,20.9,32.5,20.9,32.6,20.9
			 M31.4,20.5C31.5,20.5,31.5,20.5,31.4,20.5c0.1,0,0.1,0.1,0.1,0.1c0,0,0,0-0.1,0C31.4,20.6,31.4,20.6,31.4,20.5 M30.3,21
			C30.3,21,30.3,21,30.3,21c0,0.1,0,0.2,0,0.3h0C30.3,21.2,30.3,21.1,30.3,21 M30.1,14.7L30.1,14.7L30.1,14.7L30.1,14.7z M30.1,16.6
			L30.1,16.6L30.1,16.6L30.1,16.6z M29.8,22.6c0,0,0-0.1,0-0.1c0,0,0,0,0.1,0C29.8,22.5,29.9,22.6,29.8,22.6
			C29.9,22.6,29.8,22.6,29.8,22.6 M29.6,17.6c0.3,0.2,0.3,0.2,0.2,0.7C29.5,18.1,29.6,17.9,29.6,17.6 M29.2,20.4
			C29.2,20.4,29.2,20.4,29.2,20.4c0.1,0.2,0.1,0.4,0.1,0.6h-0.1C29.2,20.8,29.2,20.6,29.2,20.4 M28.8,17.4c0.2,0.5-0.1,0.7,0,1.1
			c0,0.3,0.1,0.6,0.1,0.9c-0.1,0-0.2,0-0.2,0C28.6,18.7,28.6,18,28.8,17.4 M28.3,16.8C28.3,16.8,28.3,16.9,28.3,16.8
			c0,0.1,0,0.1,0,0.1C28.3,16.9,28.3,16.9,28.3,16.8 M26.7,22.7C26.7,22.7,26.7,22.7,26.7,22.7C26.7,22.7,26.7,22.7,26.7,22.7
			C26.7,22.7,26.7,22.7,26.7,22.7 M25.3,18.3L25.3,18.3L25.3,18.3L25.3,18.3z M25.1,19.4c0,0.1,0,0.3,0,0.4c0,0-0.1,0.1-0.3,0.2
			c-0.1-0.3-0.1-0.5-0.1-0.6C25,19.2,25.1,19.3,25.1,19.4 M24.7,18.3L24.7,18.3L24.7,18.3L24.7,18.3z M24.3,19.2
			c0.1,0.1,0.2,0.2,0.2,0.3c0,0.2,0.1,0.5,0.2,0.7c0.2,0.2,0,0.4-0.3,0.5C24.3,20.1,24.3,19.7,24.3,19.2 M21.7,19.6
			c0.1,0,0.1,0,0.2,0.1c0.1,0.2,0.1,0.4-0.1,0.5c0,0,0,0,0,0c-0.2-0.1-0.3-0.3-0.2-0.4c0,0,0,0,0,0C21.6,19.6,21.7,19.6,21.7,19.6
			 M21.4,18.6c0.2,0.2,0.2,0.4,0.1,0.6C21.3,19,21.2,18.8,21.4,18.6C21.4,18.6,21.4,18.6,21.4,18.6 M19.1,18.1c0-0.1-0.1-0.1,0-0.2
			c0-0.1,0.1-0.1,0.2-0.1c0,0.1,0.1,0.2,0.1,0.2C19.3,18,19.2,18.1,19.1,18.1 M19.8,18L19.8,18L19.8,18L19.8,18z M18.7,15.2
			c0.1,0.1,0.2,0.2,0.4,0.3c0.1-0.1,0.2-0.2,0.3-0.3l0,0c0,0,0,0,0,0c0.4-0.2,0.5-0.1,0.4,0.5c-0.1-0.1-0.2-0.2-0.3-0.3l0,0l0,0
			c0,0.2,0,0.3,0,0.5c-0.2,0.1-0.3,0.1-0.5,0.2c0,0.2,0.1,0.3,0.1,0.5c0,0.1-0.1,0.3-0.2,0.4c-0.4-0.4-0.4-0.4,0-1
			C18.9,15.6,18.4,15.5,18.7,15.2 M17.9,16.4c0,0,0.1,0,0.2-0.1c0,0.1,0.1,0.1,0.1,0.2c0,0.1-0.1,0.1-0.2,0.2
			C17.9,16.7,17.9,16.6,17.9,16.4"/>
		<path class="st3" d="M17.6,26.2c-0.1,0.2,0.2,0.5,0.3,0.6c0.2,0.2,0.5,0.4,0.8,0.5c0.6,0.2,1.2,0.3,1.8,0.4c0.2,0,0.3,0.1,0.5,0.1
			c0,0,0,0,0,0c0-0.1,0.2-0.1,0.4-0.2c0,0.1,0,0.2,0,0.3C21.7,28,22,28,22.1,28c0.3,0,0.6,0.1,0.9,0.3c0.1,0,0.2,0.1,0.3,0.1v0
			c0,0,0,0,0,0c0.3,0.2,0.8,0.4,1.2,0.6c0.3,0.2,0.6,0.3,1,0.5c0,0.2,0.2,1.5,0.3,2c0,0.5,0,0.8,0,1c0,0.4,0.1,0.8,0.1,1.2
			c0,0.1,0.1,0.1,0.2,0.1c0,0,0.1,0,0.1,0c0-0.1,0.2-0.6,0.3-0.9c0.3-0.6,0.4-1.3,0.5-1.9c0.1-0.7,0.1-1.3,0.1-1.6
			c0-0.1,0-0.2-0.1-0.3l0,0c-0.1-0.1-0.2-0.3-0.4-0.3c-0.2-0.1-0.8-0.4-1.1-0.5C25.4,28,25.1,28,25,28c0,0-0.1,0-0.1,0
			c0,0.1,0,0.2,0,0.3c0,0-0.1,0.1-0.3,0.3c0-0.3-0.1-0.5-0.2-0.8c-0.2-0.1-0.4-0.2-0.6-0.2c-0.4,0-0.7-0.1-1.1-0.2
			c-0.1,0-0.2-0.1-0.3-0.1c0,0.1-0.1,0.2-0.2,0.3c0-0.1,0-0.2,0-0.3c-0.3-0.1-0.7-0.2-1.1-0.2c-0.4-0.1-0.7-0.1-1.1-0.2
			c-0.3-0.1-0.8-0.2-0.8-0.2c0.4-0.2,0.8-0.3,1.2-0.4c0.3-0.1,0.5-0.2,0.8-0.3c0.3-0.2,0.6-0.2,0.9-0.3c0.1,0,0.5,0.1,0.6,0
			c0.1-0.2,0.1-0.4-0.1-0.6c-0.2-0.3-0.5-0.4-0.9-0.4c-0.2,0-0.4,0-0.5,0.1c0.1,0.1,0.2,0.2,0.2,0.3c0,0.1,0,0.2-0.1,0.3
			c-0.1,0-0.2,0-0.2-0.1C21.1,25,21,24.9,21,24.7c0,0-0.1,0-0.1,0c-0.4,0.2-0.8,0.3-1.1,0.5c-0.5,0.3-1.1,0.5-1.7,0.7
			C17.9,26,17.8,26.1,17.6,26.2"/>
		<path class="st3" d="M49.2,33.1c0-0.1,0-0.2,0.1-0.3C49.2,32.9,49.2,33,49.2,33.1"/>
		<path class="st3" d="M50.3,32.1c-0.1,0.1-0.2,0.1-0.4,0.2c0,0,0,0.1,0,0.1c0,0,0,0,0,0c0.1,0.1,0.1,0.1,0.2,0.2l0,0
			c-0.1-0.1-0.1-0.1-0.2-0.2c0,0,0,0,0,0c0,0-0.1,0-0.1-0.1c-0.2,0.1-0.3,0.2-0.4,0.2c-0.1,0-0.2,0.1-0.2,0.2
			c0.2,0.1,0.3,0.4,0.2,0.7c0,0,0,0,0,0.1c-0.1-0.1-0.2-0.2-0.2-0.4c0,0,0,0,0,0.1c0,0.5,0.3,3,0.4,4.2c0.1,1.2,0.1,3.3,0.1,4.4
			c0,1.1,0,2.6,0,3c0.2,0.2,1.8,1.3,2.5,1.8c0.4,0.2,1.1,0.7,1.8,1.2c-0.2-0.3-0.1-0.8,0.2-1c0.1,0.4-0.1,0.6-0.2,1
			c0.6,0.4,1.2,0.8,1.5,0.9c0.1,0,0.2,0.1,0.4,0.2c0,0,0-0.1,0-0.1c0.1,0.1,0.2,0.2,0.3,0.3c0.4,0.2,0.9,0.4,1.3,0.6
			c0.1-0.1,0.1-0.2,0.1-0.3c0.2,0,0.4-0.1,0.7-0.1c0.1,0.3,0.1,0.5,0.1,0.8l0,0c0.3,0.1,0.5,0.2,0.5,0.2c0.1,0,0.4,0.2,0.6,0
			c0.2-0.1,1-0.7,1.1-0.8c0.1-0.1,0.3-0.6,0.2-0.9c-0.1-0.2,0-0.3-0.4-0.5C60,48,58.1,47.2,57.2,47c0,0-0.1,0-0.1,0c0,0-0.1,0-0.1,0
			c0,0,0-0.1,0-0.1h0c-0.5-0.2-0.9-0.3-1.3-0.5c0,0.1,0.1,0.1,0.1,0.2c0,0.1,0,0.1-0.1,0.2c0,0-0.1,0-0.1,0c0-0.1,0-0.2,0-0.5
			c-0.2-0.1-0.5-0.2-0.6-0.3c-0.5-0.2-0.8-0.2-1-0.3c0.4-0.3,0.9-0.6,1.4-0.8c0.1-0.3,0.1-0.6,0.2-0.8c0.1,0,0.1,0,0.2,0
			c0.1,0.2,0.1,0.4,0.2,0.5c0,0-0.1,0.1-0.1,0.1c0.8-0.3,2.5-1.1,2.8-1.1c0.3,0,0.5,0,0.8,0.1c0.1,0,0.3,0.1,0.5,0.2
			c0,0,0-0.1,0-0.1c0.1-0.2,0.2-0.5,0.3-0.7c0.2,0.3,0.4,0.5,0.2,0.8c0,0.1-0.1,0.1-0.1,0.2c0.8,0.3,1.5,0.6,2.3,1
			c0.2,0.1,0.5,0.4,0.9,0.6c0,0,0.1-0.1,0.1-0.1c0.2,0.1,0.3,0.1,0.5,0.2c0.1-0.1,0.2-0.2,0.4-0.3c0.1,0.3,0.3,0.5,0.4,0.8
			c0.1-0.1,0.2-0.1,0.3-0.2c0.4-0.7,0.8-1.4,1.3-2c0.3-0.2,0.3-0.5,0.2-0.6c-0.1-0.1-0.5-0.2-0.8-0.5c-0.2-0.2-1.2-1.5-1.8-2.2
			c0,0-0.1,0-0.1,0c0,0,0-0.1,0-0.1c-0.1-0.2-0.3-0.3-0.3-0.4c-0.4-0.5-1-1.1-1.3-1.3c-0.3-0.3-0.8-0.3-1.2-0.1
			c-0.4,0.2-3.7,1.9-4.3,2.3c-0.2,0.1-0.4,0.2-0.8,0.4c0.1,0.2,0.1,0.2-0.1,0.7c-0.2-0.2-0.3-0.3-0.2-0.5c-0.4,0.2-0.9,0.5-1.3,0.7
			c0,0.1,0,0.3,0,0.4c-0.1,0.1-0.1,0-0.1-0.2c0,0,0-0.1,0.1-0.2c-0.2,0.1-0.4,0.2-0.6,0.3c-0.2,0-0.3-0.1-0.2-0.4
			c0.6-0.9,1.2-1.7,1.9-2.5c0.8-0.9,1.8-1.4,2-1.7c0.3-0.6,0.6-1.1,0.8-1.7c0-0.1,0.1-0.1,0.1-0.2c-0.1-0.2-0.2-0.4-0.1-0.6
			c0-0.1,0.1-0.1,0.2-0.2v0h0c-0.1-0.6-0.1-0.6,0.4-0.8c0.1,0,0.1,0.1,0.2,0.2c0.2-0.3,0.3-0.5,0.3-0.6c0.2-0.2,0.1-0.3,0-0.3
			c-0.4-0.3-0.8-0.7-1.2-1c-0.1-0.1-0.1-0.2-0.2-0.3c0,0-0.1,0-0.1,0c0,0-0.1-0.1-0.1-0.1c0,0,0.1,0,0.1,0c-0.3-0.4-0.7-0.8-0.9-0.7
			c-0.4,0.3-0.7,0.7-1,1h0c0.1,0,0.1,0.1,0.1,0.2c0.1,0.2,0,0.4-0.2,0.5c-0.1-0.1-0.2-0.2-0.2-0.3c-0.2,0.3-0.4,0.5-0.6,0.7
			c-0.1,0.2-0.4,0.5-0.7,1c0.3,0.3,0.4,0.5,0.2,0.8c-0.3-0.2-0.4-0.2-0.3-0.7c-0.1,0.2-0.3,0.5-0.5,0.7c0,0,0,0,0,0.1c0,0,0,0-0.1,0
			c-0.3,0.5-0.6,1-0.8,1.4c0.1,0,0.2,0,0.2,0c0,0.2-0.1,0.4-0.2,0.5c-0.2,0.3-0.4,0.6-0.4,1c0,0.2-0.3,0.4-0.5,0.6
			c0-0.1,0-0.2-0.1-0.3c-0.3,0.7-0.6,1.5-0.7,1.7c0-0.4,0-1,0-1.6c-0.2,0-0.3-0.1-0.5-0.3c0-0.1-0.1-0.1-0.1-0.2c0,0,0,0,0,0
			c0,0.1,0,0.1-0.1,0.2c0,0-0.1,0-0.1,0c0,0,0-0.1,0-0.1c0.1,0,0.1-0.1,0.2-0.1c0,0,0,0,0,0l0,0v0c0.1-0.1,0.2-0.3,0.3-0.4
			c0.1-0.1,0.2-0.2,0.3-0.3c0-0.3,0-0.6,0-0.8c0-0.6-0.1-0.8,0.1-1c0-0.1,0.1-0.2,0.3-0.3c-0.1-0.2-0.1-0.4,0-0.6
			c0.3-0.1,0.5-0.4,0.6-0.7c0,0.2,0,0.5,0,0.7c0.3-0.3,0.5-0.6,0.7-0.9c0.1-0.1,0.1-0.3,0.1-0.4c0-0.1,0-0.1,0-0.2
			c0-0.1,0-0.3,0-0.5c0.1-0.6,0.1-1.2,0-1.8c-0.2-0.5-0.6-0.8-1.2-0.9c0,0-0.8,0.6-1,0.7C51.2,31.5,50.6,31.9,50.3,32.1 M49.5,34.2
			C49.5,34.2,49.6,34.2,49.5,34.2c0.1,0,0.1,0,0.1,0c0,0-0.1,0.1-0.1,0.1C49.5,34.3,49.5,34.2,49.5,34.2 M49.6,35.9
			c0-0.1,0-0.1,0-0.2c0,0,0.1,0,0.1,0c0,0.1,0,0.1,0,0.2C49.8,35.8,49.7,35.8,49.6,35.9 M58.7,50.2c-0.2-0.5-0.2-0.5,0-1.2
			C59,49.5,58.7,49.8,58.7,50.2 M58.7,48.2c0,0,0,0.1,0,0.1c0,0-0.1,0.1-0.1,0.1c0-0.1,0-0.1-0.1-0.2C58.6,48.2,58.7,48.2,58.7,48.2
			 M58,47.9c0,0.1,0,0.2,0,0.2c0,0,0,0,0,0c0,0,0,0.1,0,0.1c0,0,0-0.1-0.1-0.1c0,0,0,0,0,0C58,48.1,58,48,58,47.9
			C58,47.9,58,47.9,58,47.9 M56.2,47.7c0.2,0.3,0.3,0.4,0.4,0.6c0.1,0,0.2,0,0.4,0c0,0.1,0.1,0.3,0.1,0.4c-0.3,0.1-0.4,0.1-0.7,0.2
			C56.4,48.5,56.1,48.2,56.2,47.7 M66.4,43.6C66.4,43.6,66.4,43.7,66.4,43.6c0,0.1,0,0.1,0,0.2C66.3,43.7,66.3,43.7,66.4,43.6
			C66.3,43.7,66.3,43.6,66.4,43.6 M65.3,43.9C65.3,43.9,65.3,43.9,65.3,43.9C65.3,43.9,65.3,43.9,65.3,43.9
			C65.3,44,65.3,43.9,65.3,43.9C65.3,43.9,65.3,43.9,65.3,43.9 M64.5,42.9c0.1,0.3,0,0.7-0.4,0.9C63.9,43.4,64.2,43.2,64.5,42.9
			 M63,42.8L63,42.8L63,42.8L63,42.8z M62,44.1C62,44.1,62,44.2,62,44.1C62,44.2,61.9,44.2,62,44.1C61.9,44.2,61.9,44.1,62,44.1
			C61.9,44.1,61.9,44.1,62,44.1 M61.9,41.9C61.9,41.9,61.9,41.9,61.9,41.9c0,0.1,0,0.1,0,0.1C61.8,42,61.8,42,61.9,41.9
			C61.8,42,61.8,41.9,61.9,41.9 M60.4,40.7c0,0,0.1,0.1,0.1,0.1c0,0,0,0.1-0.1,0.1c0,0-0.1-0.1-0.1-0.1
			C60.3,40.8,60.4,40.8,60.4,40.7 M58.1,43.2C58.1,43.2,58.2,43.2,58.1,43.2C58.2,43.2,58.2,43.2,58.1,43.2
			C58.1,43.2,58.1,43.2,58.1,43.2C58.1,43.2,58.1,43.2,58.1,43.2 M56.8,42c0.1-0.2,0.2-0.3,0.3-0.5c0,0,0,0,0.1,0
			c0.1,0.2,0,0.4-0.1,0.6c-0.1,0.2-0.3,0.4-0.4,0.7c-0.1,0.2-0.1,0.5-0.4,0.6c-0.1-0.1-0.1-0.2-0.2-0.2C56,43,55.9,43,55.8,42.9
			C56.5,42.7,56.5,42.7,56.8,42 M53.9,44.1C53.9,44.2,54,44.2,53.9,44.1C53.9,44.2,53.9,44.2,53.9,44.1L53.9,44.1z M57.3,33.9
			c-0.2,0.1-0.3,0.2-0.5,0.3c0-0.2-0.1-0.4-0.1-0.5C56.9,33.5,57.1,33.6,57.3,33.9 M56.4,34c0.1,0.3,0.1,0.7,0,1
			C56.2,34.6,56.2,34.6,56.4,34 M56.3,36.9c0.1,0.4,0.3,0.7,0.7,0.9c0,0.1,0,0.1,0,0.1c-0.1,0-0.3,0.1-0.4,0.1
			C56.1,37.4,56,37.3,56.3,36.9 M53.8,42.1c0,0.1-0.1,0.1-0.1,0.2c-0.1,0-0.1,0.1-0.2,0.1C53.5,42.1,53.5,42.1,53.8,42.1 M52.9,42.3
			c0,0,0,0.1,0.1,0.1c0,0-0.1,0.1-0.1,0.1c0-0.1,0-0.1-0.1-0.2C52.8,42.3,52.9,42.3,52.9,42.3 M53,46c0.2,0,0.3,0.1,0.5,0.1
			c0.1,0,0.2,0.1,0.3,0.1c0.1,0.1,0.1,0.3,0,0.5c0,0,0,0,0,0c-0.1,0.1-0.3,0.1-0.3,0c0,0,0,0,0-0.1c-0.1-0.2-0.3-0.2-0.5-0.2
			C52.8,46.3,52.9,46.1,53,46 M52,42.9c-0.2-0.1-0.5-0.2-0.5-0.7C51.8,42.3,52,42.6,52,42.9 M51.4,43.5c0,0.1,0,0.1,0.1,0.2
			c-0.1,0-0.1,0-0.1,0C51.3,43.7,51.3,43.6,51.4,43.5C51.3,43.5,51.4,43.5,51.4,43.5 M50.2,43c0,0-0.1,0-0.1,0c0,0,0-0.1,0-0.1
			c0,0,0.1,0,0.1,0.1C50.2,42.9,50.2,42.9,50.2,43 M51.3,34.1c0,0.2-0.1,0.3-0.1,0.5c-0.2,0-0.4,0-0.7,0c-0.1-0.4-0.4-0.6-0.5-1.1
			c0.3,0.3,0.5,0.4,0.6,0.6c0.4-0.2,0.1-0.8,0.5-1c0.4,0.2,0.6,0.6,0.7,1C51.7,34,51.5,34,51.3,34.1 M51.8,33
			c-0.1-0.2-0.2-0.4-0.4-0.6c-0.2,0.1-0.3,0.1-0.5,0.2c-0.3-0.5-0.3-0.5,0.3-0.9C51.7,32,51.7,32.5,51.8,33"/>
		<path class="st3" d="M41.6,37.7c-0.1,0-0.2,0-0.2,0C41.4,37.7,41.5,37.7,41.6,37.7"/>
		<path class="st3" d="M32.8,49.8c-0.1-0.2-0.1-0.5-0.1-0.7l0,0l0,0c-0.1,0-0.2,0.1-0.3,0.1c-0.2-0.3-0.4,0-0.8-0.1
			c0-0.1-0.1-0.2-0.2-0.3c-0.2,0-0.4,0.2-0.5,0.4c0,0,0.1,0.1,0.1,0.1c0.9,1.3,1.9,2.5,3,3.6c0.1,0.1,0.3,0.2,0.4,0.3
			c0.2-0.2,0.3-0.4,0.4-0.7c0.3-0.1,0.3,0.2,0.4,0.2c0.4,0.3,0.5,0.3,0.9,0c0.1,0,0.1-0.1,0.2-0.1c0.1,0.1,0.1,0.1,0.1,0.2
			c0,0.1,0,0.3,0,0.4c-0.2,0-0.4,0-0.6,0c-0.1,0.2-0.2,0.4-0.3,0.7c0.1,0,0.1,0,0.2,0c0.1,0,0.5-0.2,1-0.4c0,0,0-0.1,0-0.1
			c0.1,0,0.1,0,0.1,0c0.6-0.2,1.2-0.5,1.6-0.7c0.2-0.1,0.3-0.2,0.5-0.2c0,0,0-0.1-0.1-0.1c0,0,0-0.1,0.1-0.1c0.1,0,0.1,0.1,0.2,0.1
			c0.5-0.3,0.9-0.5,1.1-0.6c0.1-0.1,0.3-0.2,0.5-0.3c-0.1-0.2,0-0.5,0.1-0.7c0.1,0.2,0.2,0.4,0.2,0.5c0.2-0.1,0.3-0.2,0.3-0.2
			c0.1-0.1,0.3-0.3,0.4-0.4c0,0,0-0.1,0.1-0.1c-0.1-0.1-0.2-0.2-0.3-0.3c-0.1-0.2,0-0.5,0.2-0.6c-0.1,0-0.2,0-0.3,0.1
			c-0.2,0.3-0.5,0.5-0.8,0.8c-0.2,0.1-0.5,0.2-0.8,0.3c-0.2,0-0.5,0.3-0.8,0.4c-0.3,0.1-1.4,0.5-1.6,0.7c-0.1,0-0.2,0.1-0.3,0.1
			c0.1,0.1,0.1,0.3-0.1,0.5c-0.2-0.1-0.3-0.2-0.2-0.3c-0.2,0.1-0.4,0.2-0.5,0.2c-0.1,0.1-0.3,0.1-0.4,0c-0.1,0-0.1-0.1-0.1-0.2
			c0-0.1,0-0.2-0.1-0.3c-0.1-0.1-0.6-0.6-0.9-0.9c-0.3-0.3-0.9-0.9-1.2-1.1c-0.3-0.2-0.3-0.3-0.4-0.4c0,0-0.1,0-0.1-0.1
			C33.2,49.6,33.1,49.7,32.8,49.8 M40.1,51.5L40.1,51.5L40.1,51.5L40.1,51.5z"/>
		<path class="st3" d="M30,43.7c0,0.1,0,0.1,0,0.2c0,0.3,0,0.3-0.4,0.7c-0.1,0.2-0.2,0.3-0.2,0.4c-0.1,0.3-0.4,0.7-0.3,0.9
			c0,0.1,0.4,0.6,0.7,1.2c0.1-0.1,0.1-0.1,0.1-0.1c0.3,0,0.4,0.1,0.3,0.5c-0.1,0-0.2-0.1-0.3-0.1c0.1,0.2,0.2,0.4,0.4,0.6
			c0-0.1,0.1-0.2,0.2-0.2c0.3-0.2,0.5-0.6,0.6-0.9c0-0.1,0-0.1,0-0.2c0,0,0-0.1-0.1-0.1c-0.2-0.3-0.3-0.6-0.4-0.8
			c-0.1-0.2-0.1-0.4,0-0.5c0.1-0.2,0.4-0.8,0.5-1.1c0.1-0.3,0.2-0.5,0.3-0.8c0.1-0.2,0.3-0.6,0.5-0.9c0,0,0,0-0.1,0
			c0,0,0.1,0,0.1-0.1c0.1-0.1,0.1-0.2,0.2-0.3c0.2-0.4,0.6-1,0.8-1.3c0.1-0.3,0.3-0.6,0.4-0.9c0.1-0.2,0.1-0.3,0.1-0.3
			c0,0,0.2,0,0.2-0.2c-0.1-0.2-0.2-0.8-0.3-1.1c-0.1-0.3-0.2-0.8-0.3-1c-0.1-0.2-0.1-0.3-0.2-0.3c0,0-0.3,0-0.4,0.2
			c-0.1,0.5-0.2,0.9-0.3,1.4c-0.2,0.7-1.4,3.6-1.7,4.4C30.2,43.2,30.1,43.4,30,43.7 M29.5,45.8c-0.1-0.1-0.1-0.1-0.1-0.2
			c0,0,0.1-0.1,0.1-0.1c0,0.1,0.1,0.1,0.1,0.2C29.6,45.7,29.5,45.7,29.5,45.8 M33,39.8C33,39.8,33,39.8,33,39.8
			C33,39.8,33,39.8,33,39.8C32.9,39.8,33,39.8,33,39.8 M31.8,40.6C31.8,40.6,31.8,40.6,31.8,40.6c0.1,0,0.1,0.1,0.2,0.1
			c-0.1,0-0.1,0-0.1,0C31.7,40.7,31.7,40.7,31.8,40.6 M31.3,40.8C31.3,40.8,31.3,40.8,31.3,40.8c0.1,0,0.1,0.1,0.1,0.1
			c0,0,0,0-0.1,0C31.3,40.9,31.3,40.9,31.3,40.8 M30.5,42.7c0.1,0,0.2,0.1,0.3,0.1c0,0.1-0.1,0.1-0.1,0.2
			C30.7,43,30.6,42.9,30.5,42.7C30.5,42.8,30.5,42.8,30.5,42.7"/>
		<path class="st3" d="M35.1,25.3c0-0.2,0.1-0.3,0-0.5c-0.1-0.2-0.5-0.4-0.7-0.4c-0.1,0-0.2,0-0.3,0c0,0,0,0,0,0c0,0,0,0.1-0.1,0.1
			c0,0,0,0-0.1,0c0,0,0-0.1,0.1-0.1c-0.1,0-0.1,0-0.2,0c-0.3-0.1-0.5-0.1-0.8-0.1C33,24,32.7,23.9,32.6,24c-0.1,0.1,0,0.1,0.1,0.3
			c0.8,0.5,1.6,1.1,2.1,1.9c0.3,0.6,0.5,1.2,0.7,1.8l0,0c0.2,0.1,0.3,0.2,0.4,0.3c-0.1,0.2-0.1,0.3-0.2,0.4c0.1,0.2,0.2,0.4,0.3,0.6
			c0.5,1,1.6,2.8,2,3.8c0.1,0.2,0.1,0.4,0.2,0.5c0,0,0-0.1,0.1-0.1c0,0,0.1,0.1,0.1,0.1c0,0.1,0,0.1-0.1,0.2c0,0,0,0,0,0
			c0.3,0.8,0.6,1.5,0.7,1.9c0.1,0.6,0.2,0.9,0.4,1.4c0.1,0.5,0.4,2.1,0.8,2.2c0.4,0.1,0.9,0.1,1.3,0.1c0.4,0.1,0.7,0.4,1.4,0.3
			c0.8-0.1,0.8-0.5,1.7-0.5c0.6,0,1.3-0.1,1.9-0.2c0,0,0,0,0.1,0c0.1,0,0.2,0,0.3,0c0.2,0,0.3,0,0.5,0c0.2,0,0.5,0,0.8,0
			c0,0,0-0.1,0-0.1c0,0,0,0,0-0.1c0,0,0,0,0,0c0,0,0,0,0,0c0,0,0,0,0,0l0,0c0,0,0,0,0,0c0,0,0,0.1,0,0.1c0,0,0,0.1,0.1,0.1h0.4
			c0.2,0,0.4-0.1,0.4-0.3c0-0.1,0-0.1,0-0.3c0-0.2-0.1-0.4-0.3-0.4c-0.2,0-1.6-0.1-2.3-0.2c-0.7,0-2.6,0-3.2-0.1
			c-0.3,0-0.9-0.1-1.4-0.1c0,0.2,0,0.3-0.2,0.6c-0.3-0.2-0.3-0.4-0.3-0.7c0,0-0.1,0-0.1,0c0,0-0.1,0-0.1,0c0,0,0,0,0,0
			c0,0.1,0,0.2,0,0.4c-0.3-0.2-0.1-0.3,0-0.4v0h0.1l0,0c-0.3-0.1-0.6-0.1-0.8-0.5c-0.1-0.2-0.5-0.8-0.8-1.7
			c-0.4-0.9-0.7-1.9-0.8-2.3c-0.3-0.7-1-2-1.2-2.5c-0.2-0.5-0.6-2-0.8-2.2c-0.1-0.2-0.7-1.3-0.9-1.8C35.6,26.1,35.2,25.5,35.1,25.3
			 M34.8,25L34.8,25L34.8,25L34.8,25z M44.2,38.6c0.2,0.1,0.3,0.3,0.2,0.5c0,0,0,0,0,0c-0.1,0-0.3,0.1-0.4,0.2
			c-0.1,0.1-0.1,0.3-0.4,0.2C43.8,39.2,44,38.9,44.2,38.6 M43.2,39c0,0,0.1,0.1,0.1,0.1c0,0.1,0,0.1-0.1,0.2c0,0-0.1-0.1-0.1-0.1
			C43.1,39.1,43.1,39.1,43.2,39 M36.6,28.3c0.2,0.3,0.2,0.7-0.1,1C36.2,28.8,36.2,28.8,36.6,28.3"/>
		<path class="st3" d="M31.9,48.3c0.3,0.2,0.6,0.5,0.8,0.7c0,0,0,0,0,0v0c0,0,0.1,0,0.1,0.1c0-0.1,0-0.1,0-0.2
			c-0.1-0.1-0.6-0.8-0.8-1.1c-0.1-0.2-0.4-0.5-0.6-0.8c0,0,0,0.1,0,0.1C31.3,47.6,31.5,48.1,31.9,48.3"/>
		<path class="st3" d="M58.6,35.6L58.6,35.6C58.6,35.6,58.6,35.6,58.6,35.6c0,0.2,0,0.3,0.1,0.4c0.1-0.1,0.1-0.3,0.2-0.4
			C58.8,35.6,58.7,35.6,58.6,35.6"/>
		<path class="st3" d="M42.3,49.4L42.3,49.4L42.3,49.4L42.3,49.4L42.3,49.4c0.1,0,0.2,0,0.4-0.1c0,0,0,0.1,0,0.1
			c0.1-0.2,0.3-0.4,0.4-0.7c0.2-0.3,0.3-0.5,0.5-0.8c0.1-0.3,0.1-0.2,0.1-0.5c0.1-0.2,0.1-0.3,0.2-0.5c0-0.1,0-0.2-0.2-0.1
			c-0.1,0-0.2,0.3-0.3,0.5c-0.2,0.3-0.4,0.6-0.6,0.9c-0.2,0.2-0.8,1.1-1,1.3c0,0-0.1,0-0.1,0c0.1,0,0.2,0.1,0.4,0.2
			C42.2,49.6,42.3,49.5,42.3,49.4 M43.1,48.4c0,0,0.1,0,0.1,0c0,0.1,0,0.2,0,0.3c-0.1,0-0.1,0-0.2,0C43,48.6,43.1,48.5,43.1,48.4"/>
		<path class="st3" d="M35.6,65.5c0.1,0.1,0.2,0.2,0.3,0.3c0.4,0.2,0.8,0.3,1.2,0.3c0.3,0,1.3,0.1,1.5,0.1c0.1,0,0.3-0.1,0.3-0.2
			c0.1-0.1,0.5-0.1,0.4-0.5c-0.1-0.5,0-1-0.1-1.7c-0.1-0.6-0.3-1.5-0.4-2.1c0,0,0,0-0.1-0.1c0,0,0,0,0.1,0c0,0,0,0,0-0.1
			c0-0.5-0.1-0.6-0.3-0.8c-0.2-0.2-0.3-0.3-0.7-0.2c-0.1,0-0.3,0.1-0.4,0.2c-0.1,0.1-0.2,0.5-0.4,0.9c-0.2,0.4-0.7,1.6-0.9,2
			c0.1,0,0.2-0.1,0.3-0.2c0,0,0.1,0.1,0.1,0.1c-0.1,0.3-0.1,0.7-0.2,1.2c-0.2-0.2-0.4-0.2-0.5-0.3c0,0,0,0-0.1,0
			c-0.1,0.1-0.1,0.2-0.2,0.4C35.3,65.1,35.3,65.3,35.6,65.5 M38.9,65c0.3,0.4,0.3,0.4,0.1,0.7C38.7,65.5,38.7,65.5,38.9,65
			 M38.4,63.2c0,0,0,0.1,0.1,0.1c0,0,0,0.1-0.1,0.1C38.4,63.4,38.3,63.3,38.4,63.2C38.3,63.3,38.4,63.2,38.4,63.2 M38.3,65.4
			c0,0,0.1,0.1,0.2,0.1c0,0.1-0.1,0.1-0.1,0.1c0,0-0.1-0.1-0.1-0.1C38.3,65.5,38.3,65.5,38.3,65.4 M37.4,61.3
			c0.2,0.3,0.2,0.3-0.1,0.6C37.3,61.7,37.3,61.5,37.4,61.3 M37.1,63.7c0.3,0.3,0.4,0.6,0.4,1c0,0.2,0.1,0.5,0.3,0.6
			c0.2,0.2,0.2,0.4,0,0.7c-0.4-0.2-0.7-0.2-0.9-0.7C36.7,64.8,36.8,64.2,37.1,63.7"/>
		<path class="st3" d="M44.5,63.4c0.1-0.2,0.2-0.4,0.3-0.5c0,0-0.1-0.1-0.1-0.1c0-0.1-0.1-0.2-0.3-0.4c-0.1,0.1-0.1,0.3-0.1,0.4
			C44.3,63,44.4,63.2,44.5,63.4"/>
		<path class="st3" d="M57.2,50.1c0-0.1-0.1-0.2-0.3-0.2c-0.3-0.1-0.5-0.2-0.8-0.4c0,0-0.1,0-0.1,0c0,0.2-0.1,0.3-0.1,0.5
			c-0.1,0-0.1,0-0.2,0c0-0.2,0-0.4,0-0.5c-0.1,0-0.3,0.1-0.4,0.2c-0.3,0.2-1.8,1.1-2.8,1.8c-0.3,0.2-0.9,0.6-1.4,1c0,0,0,0,0,0
			C51,53,51,53,50.7,52.9c-0.1,0-0.1,0-0.2,0c-1,0.7-2,1.4-2.6,1.8c-1.2,0.7-3,1.9-3.4,2.1c-0.3,0.1-0.6,0.3-0.8,0.4
			c-0.2,0.2-0.4,0.3-0.6,0.5c0,0,0.1,0,0.1,0c0,0.1,0,0.2-0.1,0.2c-0.2,0.1-0.2,0-0.3-0.1c-0.1,0-0.3,0-0.3,0.1c0,0.1,0,0.3-0.1,0.3
			c-0.6,0-1.1,0.1-1.7,0.2c-0.5-0.5-1.4-1.6-1.6-1.8c-0.1-0.1-0.2-0.2-0.4-0.2v0c0.1,0.1,0.2,0.3,0.2,0.4c0,0.3,0.1,0.6,0.2,0.8
			c0,0.1-0.1,0.2-0.2,0.4c-0.1-0.4-0.3-0.6-0.3-0.9c-0.1,0-0.1,0-0.2,0c0.1,0.5,0.4,1.3,0.4,1.5c-0.3,0-1.4,0-1.7,0
			c-0.6,0-1.2-0.1-1.8-0.2c-0.1,0-0.3-0.1-0.5-0.1c0,0.1,0,0.2,0,0.3c0,0-0.1,0-0.1,0c0-0.1,0-0.2,0-0.3c-0.4-0.1-0.8-0.2-1.3-0.2
			c0,0-0.1,0.1-0.1,0.1c0-0.1,0-0.1,0-0.2c-0.2,0-0.5-0.1-0.7-0.1c0,0.1,0.1,0.1,0.1,0.2c-0.1,0.1-0.2,0.1-0.2,0.1
			c0-0.1,0-0.2,0-0.3c-0.5-0.1-0.9-0.2-1.4-0.4c-0.6-0.2-1.5-0.4-2.3-0.7c0,0.1,0.1,0.2,0.1,0.3c-0.2,0.2-0.4,0.3-0.6,0.5
			c-0.2-0.6-0.3-0.7,0.2-0.8c-0.2-0.1-0.3-0.1-0.5-0.2c-0.8-0.3-3.3-1.2-3.8-1.4c0,0-0.1,0.1-0.1,0.1c0,0,0-0.1,0-0.1
			c-0.2,0-0.4-0.1-0.5-0.3c0,0,0,0.1-0.1,0.1c-0.3,0-0.3-0.2-0.3-0.3c0-0.1,0-0.2,0.1-0.2c-0.1-0.2-0.1-0.3-0.1-0.5
			c-0.1-0.7-0.3-1.8-0.5-2.7c0,0-0.1,0-0.1,0.1c-0.1-0.2-0.1-0.5,0-0.7c-0.1-0.4-0.1-0.7-0.1-0.9c0-0.5-0.1-1-0.3-1.4
			c0.3-1.1,0.5-2.3,0.7-3.4c0.2-1.4,0.6-2.9,0.6-3.8c0-0.1,0-0.2,0-0.2c-0.3,0.2-0.5,0.4-0.8,0.6c-0.2,0.1-0.3,0.1-0.5,0.1
			c0,0,0-0.1,0-0.1c-0.1,1-0.4,1.3-0.4,1.9c0,1-0.1,2.1-0.3,3.1c0,0.2-0.1,0.5-0.1,0.7c0,0,0,0,0,0c0,0.1,0,0.2-0.1,0.4h0
			c-0.1,1.3-0.1,2.5,0.1,3.8c0.3,1.5,0.5,5.2,0.9,5.5c0.3,0.3,0.4,0.1,0.7,0.3c0.5,0.4,1.1,0.7,1.7,0.9c1,0,2,0.1,2.9,0.3
			c0.6,0.1,1.2,0.3,1.8,0.3c0-0.1,0-0.1,0-0.2l0,0l0,0l0,0c0,0,0,0,0,0c0.1,0.1,0.2,0.1,0.2,0.2c0.1,0,0.3,0,0.4,0.1
			c0-0.2,0.1-0.3,0.2-0.5c0.1,0.1,0.2,0.2,0.3,0.4c-0.1,0.1-0.1,0.1-0.2,0.2c0.5,0.1,0.9,0.2,1.4,0.3c0.8,0.2,1.4,0.4,2,0.6
			c-0.1,0-0.2-0.1-0.2-0.2c-0.1-0.2,0-0.4,0.1-0.5c0,0,0,0,0,0c0.2,0.1,0.3,0.4,0.1,0.7c0,0,0,0,0,0c0.5,0.2,1,0.3,1.5,0.4
			c1.4,0.2,2.8,0.2,4.2,0.1c0.4,1,1.3,2.9,1.6,3.7c0,0.1,0,0.1,0.1,0.2h0l0,0c0.2,0.6,0.3,1.1,0.4,1.3c0.1,0.2,0.1,0.3,0.2,0.3
			c0.1,0,0.2,0.2,0.4,0.3c0.2,0.2,0.4,0,0.6-0.2c0.3-0.3,0.7-0.5,1.1-0.7c0.5-0.3,1.1-0.7,1.2-0.7c0.2-0.1,0.3-0.3,0.2-0.5
			c0,0,0,0,0,0c0-0.1-0.1-0.2-0.1-0.3c-0.1,0.2-0.2,0.4-0.3,0.6c-0.2,0-0.4,0.1-0.5,0.1c-0.2,0.1-0.4,0.2-0.5,0.3
			c-0.1-0.4-0.1-0.7-0.2-1.1c0.2,0,0.3,0,0.5-0.1c0-0.2-0.1-0.4-0.1-0.5c-0.1,0-0.3,0.1-0.5,0.1c0-0.2-0.1-0.4-0.2-0.6
			c0.2,0,0.4,0,0.6,0c0.1,0,0.2,0,0.3-0.1c-0.7-0.9-1.9-2.2-2.2-2.5c0.5,0,0.8,0.2,1.1,0c0.3-0.2,2.4-1.7,3.2-2.3
			c0.6-0.4,1.8-1.4,3.1-2.3c-0.1-0.1-0.1-0.2-0.2-0.4c-0.1-0.4,0-0.5,0.4-0.7c0.2,0.4,0.2,0.5,0.4,0.7c0.3-0.2,0.6-0.4,0.9-0.6
			c1-0.6,2.4-1.4,3.4-2c-0.3-0.1-0.6-0.1-0.4-0.6c0.4-0.1,0.7,0,1,0.2c0.2-0.1,0.3-0.2,0.4-0.2c0-0.1,0-0.2,0.1-0.2
			c0,0,0.1,0.1,0.1,0.1c0.2-0.1,0.3-0.1,0.3-0.2c0.5-0.2,0.9-0.5,1.3-0.8C57.2,50.2,57.2,50.2,57.2,50.1
			C57.2,50.1,57.2,50.1,57.2,50.1 M21.4,48.8c-0.2-0.3-0.1-0.5,0-0.8C21.8,48.5,21.8,48.5,21.4,48.8 M21.7,50.8
			c-0.2-0.2-0.2-0.4-0.1-0.6C21.9,50.4,21.8,50.6,21.7,50.8 M22.5,43.9c0,0.1,0.1,0.1,0.1,0.2c0,0,0,0-0.1,0c-0.1,0-0.1-0.1-0.2-0.1
			C22.4,43.9,22.4,43.9,22.5,43.9 M21.9,47.4c0.1,0,0.3,0.1,0.5,0.1c0,0.1-0.1,0.3-0.1,0.5c-0.2-0.2-0.3-0.4-0.4-0.5
			C21.9,47.5,21.9,47.4,21.9,47.4 M22.1,53.3c0-0.2,0-0.4,0.1-0.6C22.4,52.9,22.4,52.9,22.1,53.3 M25.9,57.4
			c-0.3-0.2-0.4-0.5-0.4-0.9c0.4,0.1,0.6,0.4,0.9,0.7C26.1,57.2,26,57.3,25.9,57.4 M26.7,57.6C26.6,57.6,26.6,57.6,26.7,57.6
			c-0.1,0,0-0.1,0-0.1C26.6,57.5,26.7,57.5,26.7,57.6C26.7,57.5,26.7,57.6,26.7,57.6 M40.8,59.6c0-0.1,0.1-0.2,0.2-0.2
			c0,0,0.1,0.1,0.2,0.1c-0.1,0.1-0.2,0.1-0.2,0.2C40.9,59.8,40.8,59.6,40.8,59.6 M41.4,63.1C41.3,63,41.2,63,41.1,63c0,0,0,0,0-0.1
			c0,0,0.1-0.1,0.1-0.1c0.1,0,0.2,0.1,0.3,0.1C41.5,62.9,41.4,63,41.4,63.1 M42.3,62c0.2,0.1,0.6,0.1,0.6,0.5c-0.2,0.4-0.7,0-1,0.4
			c-0.2-0.3-0.5-0.4-0.5-0.9C41.7,62,42,61.8,42.3,62"/>
		<path class="st3" d="M22.8,40.1c0.3,0,0.5,0.1,0.7,0.3c-0.1-0.9-0.3-2-0.3-2.9c0-0.8-0.1-2.1-0.1-3.2c-0.1,0.1-0.1,0.1-0.2,0.1
			l0,0c0,0,0,0,0,0c0.1,0.2,0.2,0.5,0.2,0.7c0.1,0.2-0.1,0.4-0.3,0.5c0,0,0,0,0,0c-0.1-0.4-0.3-0.8,0.1-1.2c0,0,0,0,0,0l0,0
			c-0.1-0.1-0.1-0.3-0.2-0.4c0.1-0.1,0.2-0.2,0.3-0.3c0-0.3,0-0.7,0-0.9c0-1.3-0.2-1.7-0.2-2c0.1-0.3,0.5-0.7,0.3-0.9
			c-0.1-0.3-0.5-1.1-0.9-1c0,0-0.2,0.2-0.2,0.3c0,0.4,0,0.8,0,1.3c0,0.3-0.1,2.4,0,3c0,0.7,0.1,2.3,0.1,3.6c0,0.4,0,0.9,0,1.4
			c0.1,0,0.1,0.1,0.2,0.1c0,0.1-0.1,0.3-0.2,0.4c0,0.8,0,1.5,0,2.1c0.1,0,0.2,0,0.4,0C22.7,40.7,22.7,40.4,22.8,40.1 M22.9,38.6
			c0.1,0,0.1,0,0.2,0.1c0,0.2,0,0.4-0.3,0.5c0-0.1-0.1-0.1-0.1-0.2C22.7,38.9,22.7,38.7,22.9,38.6 M22.3,32.8
			c-0.1-0.1-0.1-0.3-0.1-0.5c0-0.1,0-0.2,0.1-0.3C22.6,32.3,22.6,32.3,22.3,32.8"/>
		<path class="st3" d="M31.3,48.1c0-0.1,0-0.2-0.1-0.4c-0.1,0.2-0.3,0.4-0.4,0.5c-0.1,0-0.1,0.1-0.2,0.1c0.1,0.1,0.2,0.3,0.2,0.4
			C31,48.6,31.2,48.4,31.3,48.1"/>
		<text transform="matrix(1 0 0 1 252.6577 26.8444)" class="st2 st4 st5">®</text>
	</g>
</g>
<g>
	<g>
		<path class="st2" d="M195.6,36.2c-2.7,0-4.8,2.1-4.8,4.8c0,2.7,2.1,4.8,4.8,4.8s4.8-2.1,4.8-4.8C200.4,38.4,198.2,36.2,195.6,36.2
			"/>
		<path class="st2" d="M132.4,25.8h-32.3c0,0-1.6-0.1-1.6-1.4V6.6c0,0,0-0.6-0.5-0.4c-0.2,0.1-8.5,5.3-8.5,5.3s-0.2,0.1-0.2,0.3
			v39.5c0,0-0.1,4.5,3.8,4.5h4.3l0,0h34.3c0,0,4.9,0.1,5-4.8V29.4C136.7,29.3,136.6,25.8,132.4,25.8 M127.6,47.9
			c0,0.9-0.7,1.6-1.6,1.6h-25.9c-0.9,0-1.6-0.7-1.6-1.6V33.6c0-0.9,0.7-1.6,1.6-1.6H126c0.9,0,1.6,0.7,1.6,1.6V47.9z"/>
		<path class="st2" d="M207.6,56h32.3c0,0,1.6,0.1,1.6,1.4v17.8c0,0,0,0.6,0.5,0.4c0.2-0.1,8.5-5.3,8.5-5.3s0.2-0.2,0.2-0.3V30.5
			c0,0,0.1-4.5-3.8-4.5h-4.3l0,0h-34.3c0,0-4.9-0.1-5,4.8v21.7C203.4,52.5,203.5,56.1,207.6,56 M212.4,33.9c0-0.9,0.7-1.6,1.6-1.6
			h25.9c0.9,0,1.6,0.7,1.6,1.6v14.3c0,0.9-0.7,1.6-1.6,1.6H214c-0.9,0-1.6-0.7-1.6-1.6L212.4,33.9L212.4,33.9z"/>
		<path class="st2" d="M183,25.8h-32.3c0,0-1.6-0.1-1.6-1.4V6.6c0,0,0-0.6-0.5-0.4c-0.2,0.1-8.5,5.3-8.5,5.3s-0.2,0.1-0.2,0.3v39.5
			c0,0-0.1,4.5,3.8,4.5h4.3l0,0h34.3c0,0,4.9,0.1,5-4.8V29.4C187.3,29.3,187.2,25.8,183,25.8 M178.2,47.9c0,0.9-0.7,1.6-1.6,1.6
			h-25.9c-0.9,0-1.6-0.7-1.6-1.6V33.6c0-0.9,0.7-1.6,1.6-1.6h25.9c0.9,0,1.6,0.7,1.6,1.6V47.9z"/>
		<path class="st6" d="M355.1,26.7l-0.7,2.3c1.8,0.7,2.4,1.1,2.7,1.5l-6.6,24.7l0.9,0.7c2.3-0.5,5.6-1,9-1.4l0.8-2.8l-4,0.2
			l6.7-25.2L355.1,26.7L355.1,26.7z"/>
		<path class="st6" d="M348.6,26.7h-8.9L339,29c1.8,0.7,2.4,1.1,2.7,1.5l-1.8,6.9c-0.4,0.8-2.8,1.4-5,1.5h-15.5l3.3-12.2h-9.9
			l-0.7,2.3c2,0.7,2.7,1.1,3.1,1.5l-6,22.3c-0.2,0.5-0.6,0.5-2.8,0.7l-0.5,2c2-0.1,4.1-0.1,6.3-0.1c2.1,0,4.3,0,6.2,0.1l0.5-2
			c-2.2-0.2-3.4-0.2-3.3-0.7l2.7-10.1l0,0.1c0.2-0.8,2.5-1.4,4.6-1.6h15.9l-3.7,13.9l0.9,0.7c2.3-0.5,5.6-1,9-1.4l0.8-2.8l-4,0.2
			L348.6,26.7z"/>
		<path class="st6" d="M445.3,29.3l1.1-2.6h-13.4c-0.6,2.8-6.5,9.4-14.3,12.4l3.4-12.4h-9.9l-0.7,2.3c2,0.7,2.7,1.1,3.1,1.5l-6,22.3
			c-0.2,0.5-0.6,0.5-2.8,0.7l-0.5,2c2-0.1,4.1-0.1,6.3-0.1c2.1,0,4.3,0,6.2,0.1l0.6-2c-2.2-0.2-3.4-0.2-3.3-0.7l3.5-13.1
			c3.2,5.3,15,15.9,24.1,16.1l1.1-4.6c-6.7-0.6-16-7.1-20.2-11.5C430.7,34.5,439.6,30.1,445.3,29.3"/>
		<path class="st6" d="M528.3,26.7h-9l-0.7,2.3c1.8,0.7,2.4,1.1,2.7,1.5l-4.6,17.3c-0.1,0.3-0.3,0.7-0.5,0.7c-0.3,0-0.5-0.2-0.5-0.3
			L499,26.6h-9.9l-0.7,2.3c2,0.7,2.7,1.1,3.1,1.5l-6,22.3c-0.2,0.5-0.6,0.5-2.8,0.7l-0.5,2c2-0.1,4.1-0.1,6.3-0.1s4.3,0,6.2,0.1
			l0.6-2c-2.2-0.2-3.4-0.2-3.3-0.7l5.8-21.4c2,1.1,4.3,3.7,4.3,3.7l13.5,17.4l-0.7,2.5l0.9,0.7c2.4-0.5,5.6-1,9-1.4l0.8-2.8l-4,0.2
			L528.3,26.7z"/>
		<path class="st6" d="M266.4,46l1.9-8.4c1.7-7.5,9.4-11.5,24.3-11.5c6.6,0,12,1.1,14.1,2.5c-0.2,1.1-1.2,4.6-1.4,5.1
			c-2.9,0.8-5.6,0.3-6.9,0c0,0,0.2-0.7,0.2-1.6c-2.3-1.4-6.8-2.1-13-2.1c-7.2,0-10.6,3.1-11.5,7.1l-1.8,7.6
			c-1.6,7,10.2,7.1,15.8,7.1c6.2,0,13.5-3.6,15.8-5.5l0.9,0.4l-1.6,5.7c-5,3.4-12.4,3.7-19.2,3.7C270.7,56,265,52.4,266.4,46"/>
		<path class="st6" d="M365.6,46l1.9-8.4c1.7-7.5,9.4-11.5,24.3-11.5c6.6,0,12,1.1,14.1,2.5c-0.2,1.1-1.2,4.6-1.4,5.1
			c-2.9,0.8-5.6,0.3-6.8,0c0,0,0.2-0.7,0.3-1.6c-2.3-1.4-6.8-2.1-13-2.1c-7.2,0-10.6,3.1-11.5,7.1l-1.9,7.6
			c-1.6,7,10.2,7.1,15.8,7.1c6.2,0,13.5-3.6,15.7-5.5l0.9,0.4l-1.6,5.7c-5,3.4-12.4,3.7-19.2,3.7C370,56,364.3,52.4,365.6,46"/>
		<path class="st6" d="M478.8,49c-1.1,2-3.4,2.3-6.1,2.6c-3,0.4-14.7,0.7-17.4,0.8l2.8-10.3c0.5-0.7,2.8-1.2,5-1.3h4.8
			c2.5,0.1,5.3,0.7,5.5,1.6h1.3l1.4-5.3h-1.3c-0.4,1.1-3.4,1.5-5.9,1.6h-9.8l2.4-8.7c4.6,0,11-0.1,13,0.1c4.1,0.3,4.7,0.7,5.6,2.2
			c0.1,0.2,0.3,0.7,0.3,0.7h2.1l-2.1-6.2h-28l-0.7,2.3c2,0.7,2.7,1.1,3.1,1.5l-6,22.3c-0.2,0.5-0.6,0.5-2.8,0.7l-0.5,2
			c2-0.1,4.2-0.2,6.4-0.2c0.7,0,1.4,0,2.1,0v0h25.5l2-7.5h-1.8L478.8,49z"/>
		<path class="st6" d="M38.2,0C17.3,0.1,0.5,17.2,0.6,38.1C0.7,59,17.8,75.8,38.7,75.7s37.7-17.2,37.6-38.1
			C76.2,16.7,59.1-0.2,38.2,0 M38.7,74.3C18.5,74.4,2.1,58.2,2,38C1.8,17.9,18.1,1.5,38.2,1.3C58.4,1.2,74.8,17.4,75,37.6
			C75.1,57.7,58.9,74.2,38.7,74.3"/>
		<path class="st2" d="M18.2,14.4c-0.4,0-0.6,0.4-0.5,0.7c0.2,0.3,0.6,1.6,0.7,2.1c0.1,0.5,0.2,1.1,0.5,1.2c0.4,0.1,1.5,0.6,1.9,1
			s1.9,2.2,2.2,2.5c0.2,0.3,0.3,0.4,0.3,0.4l0,0.5c0,0-0.8,0.9-0.8,1.1c0,0.2,0.5,0.5,0.7,0.7c0.3,0.2,0.7,0.5,1.2,0.1
			c0.2-0.1,0.4-0.3,0.7-0.4c0-0.1-0.1-0.2-0.1-0.4c-0.2,0.2-0.4,0.3-0.5,0.4c-0.2-0.4-0.2-0.6,0-0.9c0.3,0.1,0.5,0.2,0.7,0.2
			c0.2,0.4,0.2,0.4,0.1,0.6c0.5-0.3,1.2-0.6,1.8-0.9c1.1-0.5,2-0.8,2.4-0.8c0.4,0,0.9,0.2,1.5,0.2c0.6-0.1,1.2,0,1.8,0.4
			c0.5,0.4,0.7,0.6,1,0.6c0.4-0.1,0.8-0.2,0.7-0.5c-0.2-0.3-0.5-1.4-0.6-1.9c0-0.2-0.1-0.3-0.1-0.4c0,0-0.1,0-0.2,0.1
			c-0.2-0.3-0.2-0.5-0.1-0.8c0-0.3,0-0.6-0.1-0.9c-0.1-0.4-0.7-0.7-1.2-0.5c-0.5,0.3-1,0.9-1.2,1.2c-0.2,0.4-0.5,0.9-0.5,0.9
			s-0.3-0.8-0.3-1.2c0-0.5,0.2-1.3,0.4-2.1s0.5-1.8,0.5-2.1c0-0.3-0.1-0.5-0.3-0.7c-0.2-0.2-1.4-1.3-1.9-1.4
			c0.2,0.2,0.2,0.5,0.4,0.7c0.2,0,0.3,0,0.4,0c0.2,0.2,0.2,0.4,0,0.6c-0.2,0-0.5,0-0.7,0c-0.2-0.4-0.5-0.7-0.4-1.1
			c-0.2,0.2-0.4,0.4-0.4,0.6c-0.1,0.3-0.4,0.9-0.2,1.2c0.2,0.4,0.4,2,0.4,2.6s0.1,2.4,0,2.7c-0.1,0.3-0.2,0.5-0.6,0.4
			c-0.4-0.1-0.7-0.1-0.8-1l0,0c-0.1,0-0.2,0.1-0.3,0.1c-0.2-0.3-0.4-0.5-0.2-0.9c0.1,0.1,0.2,0.2,0.4,0.4c0,0,0,0,0-0.1
			c-0.1-0.9-0.2-1.9-0.5-2.9c-0.2-0.7-0.4-1.6-0.5-2.2c-0.2,0.2-0.2,0.4-0.1,0.7l0,0l0,0c0.2,0,0.3,0.1,0.2,0.4
			c-0.1-0.2-0.2-0.3-0.2-0.4c0,0,0,0,0,0l0,0c-0.2,0-0.5,0-0.7,0c-0.2-0.5,0.3-0.5,0.4-0.7c0.2-0.4-0.3-0.8-0.2-1.2l0,0
			c-0.3,0-0.4-0.3-0.6-0.5c-0.2-0.2-0.5-0.4-1-0.5c-0.4-0.1-0.9-0.3-1.2-0.3c-0.2,0-0.3,0.1-0.3,0.2c0.2,0.2,0.3,0.4,0.2,0.7
			c0,0-0.1-0.1-0.1-0.1c0,0.2,0,0.5,0,0.8c0.1-0.2,0.2-0.4,0.4-0.6c0.3,0.5,0.3,0.7,0,0.9c-0.2-0.1-0.3-0.1-0.4-0.2c0,0,0,0.1,0,0.2
			c0,0.5,0,0.6,0,0.7c0,0.2,0.1,0.3,0.4,0.5c0.3,0.2,0.4,0.5,0.5,0.9c0.2,0.4,0.5,1,0.7,1.6c0.3,0.5,0.7,1.8,0.7,2.2
			c0,0.4,0.2,0.9,0.1,0.9c-0.1,0-0.9-0.4-1.3-1c-0.2-0.2-0.3-0.5-0.5-0.9c0,0-0.1,0-0.1,0c-0.3-0.4-0.6-0.6-0.5-1.2
			c0,0,0.1,0,0.1,0.1c-0.1-0.2-0.2-0.3-0.2-0.5c-0.4-0.7-1-1.9-1.2-2.3c-0.2-0.3-0.3-0.6-0.5-0.6C20.5,14.5,18.5,14.3,18.2,14.4
			 M34.1,23.5C34,23.3,34,23.2,33.9,23C34.3,23.1,34.3,23.2,34.1,23.5 M33.1,20.8L33.1,20.8C33.1,20.8,33.1,20.8,33.1,20.8
			c0-0.2,0-0.5,0-0.7c0.3,0,0.2,0.2,0.2,0.3C33.3,20.5,33.2,20.6,33.1,20.8C33.1,20.8,33.1,20.8,33.1,20.8L33.1,20.8
			c0,0.2,0,0.3,0,0.5c-0.2,0-0.3,0-0.5,0c0-0.2,0-0.4,0-0.5C32.8,20.8,33,20.8,33.1,20.8 M31.9,20.4C32,20.4,32,20.4,31.9,20.4
			c0,0,0,0.1,0,0.1h0C31.9,20.5,31.9,20.4,31.9,20.4 M30.8,20.8L30.8,20.8c0,0.1,0,0.2,0,0.3h0C30.7,21,30.8,20.9,30.8,20.8
			 M30.6,14.6L30.6,14.6L30.6,14.6L30.6,14.6z M30.5,16.5L30.5,16.5L30.5,16.5L30.5,16.5z M30.3,22.5c0,0,0-0.1,0-0.1c0,0,0,0,0,0
			C30.3,22.4,30.3,22.4,30.3,22.5L30.3,22.5 M30.1,17.5c0.3,0.2,0.3,0.2,0.2,0.7C30,18,30,17.8,30.1,17.5 M29.7,20.3L29.7,20.3
			c0,0.2,0,0.4,0,0.6h-0.1C29.7,20.6,29.7,20.5,29.7,20.3 M29.2,17.3c0.2,0.5-0.1,0.7,0,1.1c0,0.3,0.1,0.6,0.2,0.9
			c-0.1,0-0.2,0-0.2,0C29.1,18.9,29.1,18,29.2,17.3 M28.8,16.7L28.8,16.7L28.8,16.7C28.8,16.7,28.8,16.7,28.8,16.7 M27.2,22.5
			C27.2,22.5,27.2,22.5,27.2,22.5C27.2,22.5,27.2,22.5,27.2,22.5C27.2,22.5,27.2,22.5,27.2,22.5 M25.8,18.2L25.8,18.2L25.8,18.2
			L25.8,18.2z M25.6,19.3c0,0.1,0,0.3,0,0.4c0,0-0.1,0.1-0.2,0.2c0-0.3-0.1-0.5-0.1-0.6C25.5,19.1,25.6,19.2,25.6,19.3 M25.2,18.1
			L25.2,18.1L25.2,18.1L25.2,18.1z M24.8,19c0.1,0.2,0.2,0.2,0.2,0.3c0,0.2,0,0.4,0.2,0.7c0.2,0.2,0,0.4-0.3,0.5
			C24.9,20,24.7,19.6,24.8,19 M22.2,19.4c0.1,0,0.2,0,0.2,0.1c0.1,0.2,0.1,0.4-0.2,0.5c-0.2-0.1-0.3-0.3-0.2-0.5
			C22.1,19.5,22.2,19.4,22.2,19.4 M21.9,18.4c0.2,0.2,0.2,0.4,0,0.6C21.8,18.9,21.8,18.7,21.9,18.4 M19.7,18c0-0.1,0-0.2,0-0.2
			c0,0,0.1-0.1,0.2-0.1c0,0.1,0.1,0.2,0.1,0.2C19.8,17.9,19.7,17.9,19.7,18 M20.4,17.8L20.4,17.8L20.4,17.8L20.4,17.8z M19.2,15.1
			c0.1,0.1,0.2,0.2,0.4,0.3c0.1-0.1,0.2-0.2,0.3-0.3l0,0l0,0c0.4-0.2,0.5-0.1,0.4,0.5c-0.1-0.1-0.2-0.2-0.3-0.3l0,0l0,0
			c0,0.2,0,0.3,0,0.5c-0.2,0-0.3,0.1-0.5,0.2c0,0.2,0.1,0.4,0,0.5c0,0.1-0.1,0.2-0.2,0.4c-0.4-0.4-0.4-0.4,0-1
			C19.4,15.5,18.9,15.4,19.2,15.1 M18.5,16.3c0,0,0.1,0,0.2-0.1c0,0.1,0.1,0.2,0,0.2c0,0-0.1,0.1-0.2,0.2
			C18.5,16.5,18.4,16.4,18.5,16.3"/>
		<path class="st6" d="M18.2,26c-0.2,0.2,0.2,0.5,0.4,0.6c0.2,0.2,0.5,0.4,0.8,0.5c0.5,0.2,1.1,0.3,1.8,0.4c0.2,0,0.3,0,0.5,0.1v0
			c0-0.1,0.2-0.1,0.4-0.2c0,0.1,0,0.2,0,0.3c0.4,0,0.6,0.1,0.8,0.1c0.3,0,0.6,0.1,0.9,0.3c0.1,0,0.2,0.1,0.3,0.2l0,0c0,0,0,0,0,0
			c0.4,0.2,0.8,0.4,1.2,0.6c0.5,0.2,0.8,0.4,0.9,0.5c0,0.2,0.2,1.5,0.3,1.9c0,0.5,0,0.8,0,1c0,0.2,0.1,1,0.2,1.2
			c0.1,0.2,0.2,0.1,0.3,0c0-0.1,0.2-0.6,0.3-0.9c0.2-0.3,0.4-1.1,0.5-1.9c0-0.7,0.1-1.3,0.1-1.6c0-0.1,0-0.2,0-0.3c0,0,0,0,0,0
			c-0.1-0.2-0.2-0.3-0.4-0.3c-0.2,0-0.8-0.4-1.1-0.5c-0.3-0.1-0.5-0.1-0.6-0.1c0,0,0,0-0.1,0c0,0.1,0,0.2,0,0.3c0,0-0.1,0.1-0.3,0.3
			c0-0.3-0.1-0.5-0.2-0.8c-0.2-0.1-0.5-0.2-0.6-0.2c-0.4-0.1-0.7,0-1.1-0.2c-0.1,0-0.2,0-0.3-0.1c0,0.1-0.1,0.2-0.2,0.3
			c0-0.1,0-0.2,0-0.3c-0.4-0.1-0.8-0.2-1.1-0.2c-0.4,0-0.7-0.2-1.1-0.2c-0.3-0.1-0.8-0.2-0.8-0.2s0.7-0.3,1.1-0.4
			c0.3-0.1,0.5-0.2,0.8-0.3c0.3-0.1,0.5-0.3,0.9-0.3c0.1,0,0.5,0.2,0.6,0c0-0.1,0.2-0.4,0-0.6c-0.2-0.3-0.4-0.4-0.9-0.4
			c0,0-0.3,0-0.5,0.1c0.1,0.1,0.2,0.2,0.2,0.4c0,0,0,0.2-0.1,0.2c-0.1,0-0.2,0-0.3-0.1c0-0.2-0.1-0.3-0.1-0.5c0,0-0.1,0-0.1,0
			c-0.4,0.2-0.7,0.3-1.1,0.5c-0.5,0.2-1.1,0.6-1.7,0.7C18.5,25.8,18.3,25.9,18.2,26"/>
		<path class="st6" d="M49.5,32.9c0-0.1,0-0.2,0.1-0.3C49.6,32.7,49.5,32.8,49.5,32.9"/>
		<path class="st6" d="M50.7,31.9c-0.1,0-0.2,0.2-0.4,0.2c0,0,0,0.1,0,0.1c0,0,0,0,0,0c0,0.1,0.1,0.1,0.2,0.2l0,0
			c0,0-0.1-0.1-0.2-0.2v0c0,0-0.1,0-0.1-0.1c-0.2,0.1-0.4,0.2-0.4,0.2c-0.1,0-0.2,0.1-0.2,0.2c0.3,0.3,0.3,0.5,0.1,0.7
			c-0.2-0.1-0.2-0.2-0.2-0.4c0,0,0,0,0,0.1c0,0.5,0.3,3,0.4,4.2c0.1,1.2,0.1,3.2,0.1,4.4c0,1.1,0,2.7,0,3c0.2,0.2,1.8,1.3,2.5,1.8
			c0.4,0.2,1.1,0.7,1.8,1.2c-0.2-0.4-0.1-0.7,0.2-1c0.1,0.4-0.1,0.7-0.2,1c0.6,0.4,1.2,0.8,1.5,0.9c0.1,0,0.2,0.1,0.4,0.2
			c0,0,0-0.1,0-0.2c0.2,0.1,0.2,0.2,0.3,0.3c0.4,0.2,0.9,0.4,1.3,0.6c0.1-0.1,0.1-0.2,0.2-0.3c0.2,0,0.4,0,0.7-0.1
			c0,0.2,0.1,0.5,0.2,0.8l0,0c0.3,0.1,0.5,0.2,0.5,0.2c0.1,0,0.4,0.2,0.6,0c0.2-0.2,1-0.7,1.1-0.8c0.1-0.1,0.4-0.6,0.2-0.9
			c-0.1-0.2,0-0.3-0.4-0.5c-0.4-0.2-2.3-0.9-3.1-1.2c0,0-0.1,0-0.1,0c0,0,0,0-0.1,0c0,0,0,0,0-0.1l0,0c-0.5-0.2-0.9-0.3-1.3-0.5
			c0.1,0.1,0.1,0.2,0.1,0.2c0,0.1,0,0.2,0,0.2c0,0-0.1,0-0.2,0c0-0.1,0-0.2,0-0.5c-0.2-0.1-0.5-0.2-0.6-0.3c-0.5-0.2-0.8-0.2-1-0.4
			c0.4-0.2,0.8-0.6,1.4-0.9c0.1-0.3,0.2-0.6,0.2-0.8c0,0,0.1,0,0.2,0c0,0.2,0.1,0.4,0.2,0.5c0,0,0,0.1-0.1,0.1
			c0.8-0.3,2.5-1.1,2.7-1.1c0.3,0,0.5,0,0.8,0.2c0.1,0,0.3,0.1,0.5,0.2c0,0,0-0.1,0-0.1c0.1-0.2,0.2-0.5,0.3-0.7
			c0.2,0.3,0.4,0.5,0.2,0.8c0,0,0,0.1-0.1,0.2c0.8,0.4,1.9,0.8,2.3,1.1c0.2,0.2,0.5,0.4,0.9,0.5c0,0,0-0.1,0.1-0.1
			c0.2,0.1,0.4,0.1,0.5,0.2c0.1-0.1,0.2-0.2,0.4-0.3c0.2,0.3,0.3,0.5,0.4,0.7c0.1-0.1,0.2-0.1,0.3-0.2c0.3-0.5,1.1-1.8,1.3-1.9
			c0.3-0.2,0.2-0.5,0.2-0.6C67,43,66.6,43,66.3,42.7c-0.2-0.2-1.2-1.4-1.8-2.2c0,0,0,0-0.1,0c0,0,0-0.1,0-0.1
			c-0.2-0.2-0.3-0.3-0.3-0.4c-0.4-0.5-1.1-1.1-1.3-1.3c-0.2-0.2-0.7-0.3-1.1-0.1c-0.4,0.2-3.7,1.9-4.3,2.3c-0.2,0.1-0.4,0.2-0.8,0.4
			c0.1,0.2,0.1,0.2-0.1,0.7c-0.2-0.2-0.3-0.3-0.2-0.5c-0.4,0.2-0.9,0.5-1.2,0.7c0,0.2,0,0.3,0,0.4c0,0.1-0.2,0-0.1-0.2
			c0,0,0-0.1,0.1-0.2c-0.3,0.2-0.5,0.3-0.6,0.3c-0.2,0-0.3-0.1-0.2-0.4c0.2-0.3,1.1-1.6,1.9-2.5c0.8-0.9,1.8-1.4,2-1.7
			c0.2-0.3,0.5-1.1,0.8-1.7c0,0,0-0.1,0.1-0.2c-0.1-0.2-0.2-0.4-0.1-0.5c0-0.1,0.1-0.1,0.2-0.2v0l0,0c-0.1-0.6-0.1-0.6,0.4-0.9
			c0.1,0,0.2,0.1,0.2,0.2c0.2-0.3,0.3-0.5,0.4-0.5c0.2-0.2,0.2-0.3,0-0.4c-0.1-0.1-0.9-0.7-1.2-1c-0.1-0.1-0.2-0.2-0.2-0.2
			c0,0,0,0-0.1,0c0,0-0.1-0.1-0.1-0.1c0,0,0,0,0.1,0c-0.3-0.4-0.7-0.8-0.9-0.7c-0.2,0-0.6,0.5-1,1.1l0,0c0.1,0,0.1,0.1,0.2,0.2
			c0,0.2,0,0.4-0.2,0.5c-0.1-0.1-0.2-0.2-0.2-0.3c-0.2,0.3-0.4,0.5-0.6,0.7c-0.1,0.2-0.4,0.5-0.7,1c0.2,0.3,0.4,0.5,0.2,0.8
			c-0.3-0.2-0.4-0.2-0.3-0.7c-0.2,0.2-0.3,0.5-0.5,0.7c0,0,0,0,0,0c0,0,0,0-0.1,0c-0.3,0.5-0.6,1-0.8,1.4c0.1,0,0.2,0,0.2,0
			c0,0.2-0.1,0.4-0.2,0.5c-0.2,0.3-0.4,0.6-0.4,1c0,0.2-0.3,0.4-0.5,0.6c0-0.1,0-0.2-0.1-0.3c-0.3,0.7-0.6,1.5-0.7,1.6
			c0-0.4,0-1,0-1.6c-0.2,0-0.3,0-0.5-0.3c0-0.1-0.1-0.1-0.1-0.2l0,0c0,0.1,0,0.1-0.1,0.2c0,0-0.1,0-0.1,0c0,0,0-0.1,0-0.1
			c0,0,0.1,0,0.2-0.1c0,0,0,0,0,0l0,0l0,0c0.1-0.1,0.2-0.3,0.3-0.4c0.1-0.1,0.2-0.2,0.3-0.2c0-0.3,0-0.6,0-0.7c0-0.5,0-0.8,0.2-1.1
			c0,0,0.2-0.2,0.3-0.3c-0.1-0.2-0.1-0.4,0-0.6c0.4-0.3,0.4-0.3,0.6-0.7c0,0.2,0,0.5,0,0.7c0.4-0.4,0.7-0.7,0.7-0.9
			c0-0.1,0.1-0.3,0.1-0.4c0,0,0-0.1,0-0.2c0-0.2,0-0.3,0-0.5c0-0.5,0.2-1.2,0-1.8c-0.3-0.6-0.9-0.9-1.2-0.9c0,0-0.9,0.5-1,0.7
			C51.5,31.3,50.9,31.7,50.7,31.9 M49.9,34C49.9,34,49.9,34,49.9,34c0.1,0,0.1,0,0.1,0c0,0-0.1,0-0.1,0.1C49.9,34.1,49.9,34,49.9,34
			 M50,35.7c0-0.1,0-0.2,0-0.2c0,0,0.1,0,0.1,0c0,0.1,0,0.1,0,0.2C50.1,35.6,50.1,35.6,50,35.7 M59.1,50c-0.2-0.5-0.2-0.5,0-1.2
			C59.3,49.3,59.1,49.5,59.1,50 M59,47.9c0,0,0,0.1,0,0.1c0,0-0.1,0.1-0.1,0.1c0-0.1,0-0.1,0-0.2C58.9,47.9,59,47.9,59,47.9
			 M58.4,47.6c0,0.1,0,0.2,0,0.2c0,0,0,0,0,0c0,0,0,0.1,0,0.1c0,0,0-0.1-0.1-0.1v0C58.4,47.8,58.3,47.7,58.4,47.6
			C58.3,47.6,58.3,47.6,58.4,47.6 M56.6,47.4c0.2,0.3,0.3,0.4,0.4,0.6c0.1,0,0.2,0,0.4,0c0,0.1,0.1,0.3,0.1,0.4
			c-0.3,0.1-0.4,0.1-0.7,0.2C56.8,48.2,56.4,47.9,56.6,47.4 M66.7,43.4C66.7,43.4,66.7,43.4,66.7,43.4c0,0.1,0,0.2,0,0.2
			C66.6,43.5,66.6,43.5,66.7,43.4C66.5,43.4,66.6,43.4,66.7,43.4 M65.6,43.6C65.6,43.6,65.6,43.6,65.6,43.6
			C65.6,43.7,65.6,43.7,65.6,43.6C65.6,43.7,65.6,43.7,65.6,43.6C65.6,43.7,65.6,43.6,65.6,43.6 M64.8,42.6c0.1,0.5-0.1,0.7-0.4,0.9
			C64.2,43.1,64.6,43,64.8,42.6 M63.3,42.5L63.3,42.5L63.3,42.5L63.3,42.5z M62.3,43.8C62.3,43.9,62.3,43.9,62.3,43.8
			C62.3,43.9,62.3,43.9,62.3,43.8C62.3,43.9,62.3,43.9,62.3,43.8C62.3,43.8,62.3,43.8,62.3,43.8 M62.2,41.6
			C62.2,41.6,62.2,41.7,62.2,41.6c0,0.1,0,0.1,0,0.1L62.2,41.6C62.1,41.7,62.1,41.7,62.2,41.6 M60.7,40.5c0,0,0,0.1,0,0.1
			c0,0,0,0.1-0.1,0.1c0,0-0.1-0.1-0.1-0.1C60.7,40.6,60.7,40.5,60.7,40.5 M58.5,42.9C58.5,42.9,58.5,42.9,58.5,42.9
			C58.5,43,58.5,43,58.5,42.9C58.4,43,58.4,43,58.5,42.9C58.4,43,58.5,42.9,58.5,42.9 M57.2,41.7c0.1-0.2,0.2-0.3,0.3-0.5
			c0,0,0,0,0.1,0c0.1,0.2,0,0.4-0.1,0.6c-0.1,0.2-0.3,0.4-0.4,0.7C57,42.8,57,43,56.7,43.1c-0.1-0.1-0.2-0.2-0.2-0.2
			c-0.1-0.1-0.2-0.2-0.3-0.3C56.8,42.4,56.8,42.4,57.2,41.7 M54.3,43.9L54.3,43.9L54.3,43.9L54.3,43.9z M57.6,33.7
			c-0.2,0.1-0.3,0.2-0.5,0.3c0-0.2-0.1-0.4-0.1-0.5C57.3,33.3,57.5,33.4,57.6,33.7 M56.8,33.8c0.1,0.4,0,0.7,0,1
			C56.6,34.4,56.6,34.4,56.8,33.8 M56.7,36.7c0.1,0.4,0.4,0.7,0.7,0.9c0,0.1,0,0.1,0,0.1c-0.2,0-0.3,0.1-0.4,0.1
			C56.4,37.1,56.4,37,56.7,36.7 M54.1,41.8c0,0.1-0.1,0.2-0.1,0.2c0,0-0.1,0.1-0.2,0.1C53.8,41.9,53.8,41.9,54.1,41.8 M53.3,42.1
			c0,0,0,0.1,0,0.1c0,0-0.1,0.1-0.1,0.1c0-0.1,0-0.1,0-0.2C53.2,42.1,53.2,42.1,53.3,42.1 M53.3,45.8c0.2,0,0.3,0.1,0.5,0.1
			c0.1,0,0.2,0.1,0.2,0.2c0.2,0.2,0.1,0.4,0,0.5c-0.2,0.1-0.3,0.1-0.4-0.1c-0.1-0.2-0.3-0.2-0.5-0.2C53.2,46,53.3,45.9,53.3,45.8
			 M52.4,42.6c-0.2-0.2-0.5-0.2-0.5-0.7C52.2,42.1,52.3,42.3,52.4,42.6 M51.8,43.2c0,0.1,0,0.1,0.1,0.2c-0.1,0-0.1,0-0.2,0
			c0,0,0-0.1,0-0.1C51.7,43.3,51.7,43.3,51.8,43.2 M50.5,42.7l-0.1,0c0,0,0-0.1,0-0.1c0,0,0.1,0,0.1,0
			C50.6,42.6,50.6,42.7,50.5,42.7 M51.7,33.9c0,0.2-0.1,0.3-0.1,0.5c-0.2,0-0.4,0-0.7,0c-0.1-0.4-0.4-0.6-0.5-1.1
			c0.3,0.3,0.5,0.4,0.6,0.6c0.4-0.2,0.1-0.8,0.5-1c0.4,0.2,0.6,0.5,0.7,1C52,33.8,51.9,33.8,51.7,33.9 M52.2,32.8
			c-0.1-0.2-0.2-0.4-0.4-0.6c-0.2,0.1-0.3,0.1-0.5,0.2c-0.3-0.5-0.3-0.5,0.3-0.9C52.1,31.8,52.1,32.3,52.2,32.8"/>
		<path class="st6" d="M42,37.5c-0.1,0-0.2,0-0.2,0C41.8,37.5,41.9,37.5,42,37.5"/>
		<path class="st6" d="M33.3,49.5c-0.2-0.2-0.1-0.5,0-0.7l0,0l0,0c-0.1,0-0.2,0.1-0.3,0.1c-0.2-0.3-0.4,0-0.8,0c0,0-0.1-0.2-0.2-0.3
			c-0.2,0.1-0.4,0.2-0.5,0.4c0,0,0,0.1,0.1,0.1c0.6,0.9,2.5,3.2,3,3.6c0.1,0.1,0.2,0.2,0.4,0.3c0.2-0.2,0.3-0.5,0.4-0.7
			c0.3-0.1,0.3,0.2,0.4,0.2c0.4,0.3,0.5,0.3,0.9,0c0.1,0,0.1-0.1,0.2-0.2c0,0.1,0.1,0.1,0.2,0.2c0,0.1,0,0.2,0,0.4
			c-0.2,0-0.4,0-0.6,0c-0.1,0.2-0.2,0.4-0.3,0.7c0,0,0.1,0,0.2,0c0.1,0,0.5-0.2,1-0.4c0,0,0-0.1,0-0.1c0,0,0.1,0,0.2,0
			c0.5-0.2,1.2-0.5,1.6-0.7c0.2-0.1,0.3-0.2,0.5-0.2c0,0,0-0.1,0-0.1c0,0,0-0.1,0.1-0.1c0,0,0.1,0.1,0.2,0.2
			c0.5-0.3,0.9-0.5,1.1-0.6c0.1-0.1,0.3-0.2,0.5-0.3c-0.1-0.2-0.1-0.4,0.1-0.7c0.1,0.2,0.2,0.4,0.2,0.5c0.2-0.1,0.3-0.2,0.4-0.2
			c0.1-0.1,0.2-0.2,0.4-0.4c0,0,0-0.1,0.1-0.1c-0.1-0.1-0.3-0.2-0.3-0.3c-0.1-0.2,0-0.5,0.2-0.6c-0.1,0-0.2,0-0.3,0.1
			c-0.2,0.2-0.5,0.6-0.8,0.8c-0.3,0.2-0.6,0.2-0.7,0.3c-0.2,0-0.5,0.3-0.8,0.4c-0.3,0.2-1.4,0.5-1.6,0.7c-0.1,0-0.2,0.1-0.3,0.2
			c0.2,0.1,0.1,0.3-0.1,0.5c-0.2-0.1-0.3-0.2-0.2-0.4c-0.2,0.1-0.4,0.2-0.5,0.2c-0.2,0.1-0.3,0-0.4,0c-0.1,0-0.1-0.1-0.1-0.2
			c0-0.1,0-0.2-0.1-0.3c-0.1-0.1-0.5-0.6-0.9-0.9c-0.3-0.3-0.9-0.9-1.2-1.1c-0.3-0.2-0.3-0.3-0.4-0.4c0,0-0.1,0-0.1,0
			C33.7,49.3,33.6,49.4,33.3,49.5 M40.5,51.2L40.5,51.2L40.5,51.2L40.5,51.2z"/>
		<path class="st6" d="M30.4,43.4c0,0,0,0.1,0,0.2c0,0.3,0,0.3-0.4,0.7c-0.1,0.2-0.2,0.4-0.2,0.4c-0.1,0.3-0.4,0.7-0.3,0.9
			c0,0.1,0.4,0.6,0.7,1.2c0-0.1,0.1-0.1,0.2-0.2c0.3,0,0.4,0.1,0.3,0.5c-0.1,0-0.2-0.1-0.3-0.1c0.1,0.2,0.2,0.4,0.4,0.6
			c0-0.1,0.1-0.2,0.2-0.2c0.4-0.4,0.5-0.5,0.6-0.9c0,0,0-0.1,0-0.2c0,0,0-0.1-0.1-0.1c-0.2-0.3-0.3-0.6-0.4-0.8
			c-0.1-0.2,0-0.4,0-0.5c0.1-0.2,0.4-0.8,0.5-1.1c0.1-0.3,0.2-0.5,0.3-0.8c0.1-0.2,0.3-0.6,0.5-0.9c0,0,0,0-0.1,0c0,0,0,0,0.1-0.1
			c0-0.1,0.1-0.2,0.2-0.3c0.2-0.4,0.6-1,0.8-1.3c0.2-0.3,0.3-0.7,0.4-0.9c0.1-0.2,0.1-0.3,0.1-0.3c0,0,0.2,0,0.2-0.2
			c0-0.2-0.2-0.8-0.3-1.1c-0.1-0.3-0.2-0.8-0.3-0.9c-0.1-0.2-0.1-0.3-0.2-0.3c0,0-0.4,0-0.4,0.2c0,0.2-0.1,0.7-0.3,1.4
			c-0.2,0.7-1.4,3.6-1.7,4.3C30.7,42.9,30.6,43.1,30.4,43.4 M30,45.5c0-0.1-0.1-0.2-0.1-0.2c0,0,0.1-0.1,0.1-0.1
			c0,0,0.1,0.1,0.2,0.2C30,45.4,30,45.4,30,45.5 M33.4,39.5C33.4,39.5,33.4,39.6,33.4,39.5L33.4,39.5C33.4,39.6,33.4,39.6,33.4,39.5
			 M32.2,40.4C32.2,40.3,32.3,40.3,32.2,40.4c0.1,0,0.1,0,0.2,0.1c-0.1,0-0.1,0-0.1,0C32.2,40.5,32.2,40.4,32.2,40.4 M31.7,40.6
			C31.7,40.6,31.8,40.6,31.7,40.6c0.1,0,0.1,0.1,0.1,0.1h-0.1C31.7,40.7,31.7,40.7,31.7,40.6 M31,42.5c0.1,0,0.2,0.1,0.3,0.1
			c0,0-0.1,0.1-0.1,0.2C31.1,42.7,31.1,42.6,31,42.5C31,42.6,31,42.5,31,42.5"/>
		<path class="st6" d="M35.6,25.1c0-0.2,0.1-0.4,0-0.5c-0.1-0.2-0.5-0.4-0.7-0.4c-0.1,0-0.2,0-0.3,0l0,0c0,0,0,0.1-0.1,0.1l0,0
			c0,0,0,0,0.1-0.1c0,0-0.1,0-0.2,0c-0.2-0.1-0.6-0.1-0.8-0.2c-0.2,0-0.5-0.2-0.5-0.1c-0.1,0.1,0,0.1,0.1,0.3c0,0,1.6,0.9,2.1,1.9
			c0.3,0.5,0.5,1.2,0.7,1.8c0,0,0,0,0,0c0.2,0.1,0.3,0.2,0.4,0.3c-0.1,0.2-0.1,0.3-0.2,0.4c0.1,0.2,0.2,0.4,0.3,0.6
			c0.5,1,1.6,2.8,1.9,3.8c0.1,0.2,0.1,0.4,0.2,0.5c0,0,0-0.1,0-0.1c0,0,0.1,0.1,0.1,0.1c0,0.1,0,0.1,0,0.2l0,0
			c0.3,0.8,0.6,1.6,0.7,1.9c0.2,0.5,0.2,0.9,0.4,1.4c0.2,0.5,0.4,2.1,0.8,2.2s0.9,0,1.3,0.1c0.4,0.1,0.7,0.4,1.4,0.3
			c0.7-0.2,0.8-0.5,1.6-0.5c0.5,0,1.3-0.1,1.9-0.2l0,0c0.1,0,0.2,0,0.3,0c0.2,0,0.4,0,0.5,0c0.2,0,0.5,0,0.8,0c0,0,0-0.1,0-0.2
			c0,0,0,0,0-0.1v0c0,0,0,0,0,0s0,0,0,0v0.1l0,0l0,0v0c0,0,0,0,0,0c0,0,0,0,0,0.1c0,0,0,0.1,0,0.2h0.4c0.2,0,0.4-0.2,0.4-0.3
			c0-0.1,0-0.1,0-0.3c0-0.2-0.1-0.4-0.3-0.4s-1.6-0.2-2.3-0.2c-0.7,0-2.6,0-3.2-0.1c-0.4,0-0.9,0-1.4-0.1c0,0.2,0,0.3-0.2,0.6
			c-0.3-0.2-0.3-0.4-0.4-0.7c0,0-0.1,0-0.1,0c0,0-0.1,0-0.1,0l0,0c0,0.1,0,0.2,0,0.4c-0.3-0.2-0.1-0.3,0-0.4v0h0h0
			c-0.3-0.1-0.5,0-0.8-0.5c-0.1-0.2-0.5-0.9-0.8-1.7c-0.4-0.9-0.7-1.9-0.8-2.3c-0.3-0.7-1-2-1.2-2.5c-0.2-0.5-0.6-1.9-0.7-2.2
			C37,28,36.4,27,36.2,26.5C36.1,25.9,35.6,25.3,35.6,25.1 M35.2,24.9L35.2,24.9L35.2,24.9L35.2,24.9z M44.6,38.4
			c0.3,0.2,0.2,0.4,0.2,0.5c-0.2,0-0.3,0.1-0.4,0.2c-0.1,0-0.1,0.3-0.4,0.2C44.2,38.9,44.4,38.7,44.6,38.4 M43.6,38.8
			c0,0,0.1,0.1,0.1,0.1c0,0.1,0,0.1-0.1,0.2c0,0-0.1-0.1-0.1-0.1C43.5,38.9,43.5,38.9,43.6,38.8 M37,28.1c0.2,0.4,0.2,0.7-0.1,1
			C36.6,28.6,36.6,28.6,37,28.1"/>
		<path class="st6" d="M32.4,48.1c0.3,0.2,0.5,0.5,0.8,0.7h0v0c0,0,0.1,0,0.2,0.1c0-0.1,0-0.1,0-0.2c-0.1-0.1-0.6-0.7-0.8-1.1
			c-0.1-0.2-0.4-0.5-0.6-0.8c0,0,0,0.1,0,0.1C31.8,47.4,32,47.7,32.4,48.1"/>
		<path class="st6" d="M59,35.3L59,35.3L59,35.3c0,0.2,0,0.3,0,0.4c0.1-0.1,0.1-0.3,0.2-0.4C59.1,35.3,59.1,35.3,59,35.3"/>
		<path class="st6" d="M42.8,49.1L42.8,49.1L42.8,49.1L42.8,49.1L42.8,49.1c0.1,0,0.2,0,0.4,0c0,0,0,0.1,0,0.2
			c0.2-0.2,0.3-0.4,0.4-0.7c0.2-0.3,0.4-0.5,0.5-0.8c0.1-0.2,0-0.2,0.2-0.5c0.1-0.2,0.2-0.4,0.2-0.5c0-0.1,0-0.2-0.2-0.2
			c-0.2,0-0.2,0.3-0.3,0.5c-0.1,0.2-0.4,0.7-0.6,0.9c-0.2,0.2-0.8,1.1-1,1.2c0,0-0.1,0-0.1,0c0.1,0,0.2,0.1,0.4,0.2
			C42.6,49.3,42.7,49.2,42.8,49.1 M43.5,48.1l0.1,0c0,0.1,0,0.2,0,0.3c0,0-0.1,0-0.2,0C43.4,48.3,43.5,48.3,43.5,48.1"/>
		<path class="st6" d="M36,65.2c0.1,0.1,0.2,0.2,0.3,0.3c0.2,0.1,0.9,0.3,1.2,0.3c0.3,0,1.2,0.1,1.4,0.1c0.2,0,0.2-0.1,0.3-0.2
			c0.1-0.1,0.5,0,0.4-0.5c-0.1-0.5,0-1-0.1-1.6c-0.1-0.6-0.3-1.5-0.4-2c0,0,0,0-0.1-0.1h0c0,0,0,0,0-0.1c0-0.5-0.1-0.6-0.3-0.8
			c-0.2-0.2-0.3-0.3-0.7-0.2c0,0-0.3,0.1-0.4,0.2c-0.1,0.2-0.2,0.5-0.4,0.9c-0.2,0.4-0.7,1.6-0.9,1.9c0.1,0,0.2-0.1,0.3-0.2
			c0,0,0.1,0.1,0.1,0.1c-0.1,0.4-0.1,0.7-0.2,1.2c-0.2-0.2-0.4-0.2-0.5-0.3c0,0,0,0-0.1,0c-0.1,0.1-0.1,0.2-0.2,0.4
			C35.8,64.7,35.7,64.9,36,65.2 M39.3,64.6c0.3,0.4,0.3,0.4,0.2,0.7C39.1,65.1,39.1,65.1,39.3,64.6 M38.8,62.8c0,0,0,0.1,0.1,0.1
			c0,0,0,0.1-0.1,0.1C38.8,63,38.7,63,38.8,62.8C38.7,62.9,38.8,62.9,38.8,62.8 M38.7,65.1c0,0,0.1,0.1,0.2,0.1c0,0-0.1,0.1-0.1,0.1
			c0,0-0.1-0.1-0.1-0.1C38.7,65.1,38.7,65.1,38.7,65.1 M37.8,61c0.2,0.3,0.2,0.3-0.1,0.6C37.7,61.4,37.8,61.2,37.8,61 M37.5,63.3
			c0.4,0.3,0.4,0.7,0.4,1c0,0.2,0.1,0.4,0.3,0.6c0.2,0.2,0.2,0.4,0,0.7c-0.4-0.2-0.7-0.2-0.9-0.7C37.1,64.5,37.1,64,37.5,63.3"/>
		<path class="st6" d="M44.9,63c0.1-0.2,0.2-0.4,0.3-0.5c0,0-0.1-0.1-0.2-0.1c0-0.1-0.2-0.2-0.3-0.4c-0.1,0.1-0.1,0.3-0.1,0.4
			C44.7,62.6,44.8,62.8,44.9,63"/>
		<path class="st6" d="M57.6,49.8c0-0.1-0.1-0.2-0.2-0.2c-0.2-0.1-0.5-0.2-0.8-0.4c0,0-0.1,0-0.1,0c0,0.2-0.1,0.3-0.1,0.5
			c-0.1,0-0.1,0-0.2,0c0-0.2,0-0.4,0-0.5c-0.1,0-0.2,0.1-0.4,0.2c-0.3,0.2-1.8,1.1-2.8,1.8c-0.4,0.2-0.9,0.6-1.4,1h0
			c-0.2,0.5-0.2,0.5-0.5,0.5c0,0-0.1,0-0.2,0C50,53.3,49,54,48.3,54.4c-1.2,0.7-3,1.9-3.4,2.1c-0.4,0.2-0.7,0.3-0.8,0.4
			c-0.1,0.1-0.4,0.4-0.6,0.5c0,0,0.1,0,0.1,0c0,0.1,0,0.2-0.1,0.2c-0.2,0.1-0.2,0-0.3-0.2c-0.1,0-0.3,0-0.3,0.1c0,0.1,0,0.3-0.1,0.3
			c-0.1,0-1.1,0.1-1.7,0.2c-0.5-0.5-1.4-1.6-1.6-1.8c-0.2-0.2-0.3-0.2-0.4-0.2l0,0c0.1,0.1,0.2,0.3,0.2,0.4c0,0.3,0.1,0.5,0.2,0.8
			c0,0.1-0.1,0.2-0.2,0.4c-0.2-0.4-0.3-0.6-0.4-0.9c-0.1,0-0.1,0-0.2,0c0.1,0.5,0.4,1.3,0.4,1.4c-0.3,0-1.4,0-1.7,0
			s-0.9-0.1-1.8-0.2c-0.2,0-0.3,0-0.5-0.1c0,0.1,0,0.2,0,0.3c0,0-0.1,0-0.1,0c0-0.1,0-0.2,0-0.3c-0.4-0.1-0.8-0.2-1.2-0.2
			c0,0-0.1,0.1-0.1,0.1c0,0,0-0.1,0-0.2c-0.2,0-0.5-0.1-0.7-0.2c0,0.1,0.1,0.1,0.1,0.2c-0.1,0-0.2,0.1-0.2,0.2c0-0.1,0-0.2,0-0.4
			c-0.6-0.1-1.1-0.3-1.4-0.4c-0.6-0.2-1.5-0.4-2.3-0.7c0,0.1,0.1,0.2,0.2,0.3c-0.2,0.2-0.4,0.3-0.6,0.5c-0.2-0.6-0.3-0.7,0.2-0.8
			c-0.2-0.1-0.3-0.1-0.5-0.2c-0.8-0.4-3.3-1.2-3.8-1.4c0,0-0.1,0.1-0.2,0.1c0,0,0-0.1,0-0.2c-0.2,0-0.4-0.1-0.5-0.3
			c0,0,0,0.1-0.1,0.1c-0.3,0-0.3-0.2-0.3-0.3c0-0.1,0-0.2,0.1-0.2c0-0.2-0.1-0.3-0.2-0.5c-0.2-0.7-0.3-1.8-0.5-2.7c0,0-0.1,0-0.1,0
			c-0.2-0.3-0.1-0.5,0-0.7c-0.1-0.4-0.1-0.7-0.2-0.9c-0.1-0.7-0.1-1-0.3-1.4c0.2-0.4,0.5-2,0.7-3.4c0.2-1.4,0.6-2.9,0.6-3.8
			c0-0.1,0-0.2,0-0.2c-0.3,0.2-0.5,0.4-0.8,0.6c-0.1,0.1-0.3,0.1-0.5,0.1c0,0,0-0.1,0-0.1c-0.1,1.1-0.4,1.3-0.4,1.8
			c0,0.6-0.1,1.9-0.3,3c0,0.2-0.1,0.5-0.1,0.7h0c0,0.1,0,0.2,0,0.4l0,0c-0.1,1.2-0.1,2.7,0.1,3.8c0.2,1.5,0.5,5.2,0.9,5.5
			c0.3,0.3,0.4,0.1,0.7,0.3c0.3,0.2,1.2,0.9,1.7,0.9c0.5,0,1.9,0,2.9,0.3c0.5,0.2,1.1,0.2,1.8,0.4c0-0.1,0-0.1,0-0.2l0,0l0,0l0,0
			l0,0C29.9,58,30,58,30,58.1c0.1,0,0.3,0,0.4,0.1c0-0.1,0.1-0.3,0.2-0.5c0.1,0.1,0.2,0.2,0.3,0.4c-0.1,0.1-0.2,0.1-0.2,0.2
			c0.5,0.1,0.9,0.2,1.4,0.3c0.8,0.2,1.4,0.4,1.9,0.6c-0.1,0-0.2-0.1-0.2-0.2c0-0.2-0.1-0.4,0.2-0.5c0.2,0.2,0.3,0.4,0.1,0.7
			c0.5,0.2,1,0.3,1.5,0.4c1.1,0.2,3.6,0.2,4.2,0.1c0.4,1,1.3,2.9,1.6,3.7c0,0.1,0,0.2,0.1,0.2l0,0l0,0c0.2,0.6,0.3,1.1,0.4,1.3
			c0.1,0.2,0.1,0.3,0.2,0.4c0.1,0,0.2,0.2,0.4,0.3c0.2,0.2,0.4,0,0.6-0.2c0.2-0.2,0.5-0.5,1.1-0.7c0.5-0.3,1.1-0.7,1.2-0.7
			c0.2-0.1,0.3-0.3,0.2-0.5c0-0.1-0.1-0.2-0.1-0.3c-0.1,0.2-0.2,0.4-0.4,0.6c-0.2,0-0.4,0.1-0.5,0.2c-0.2,0.1-0.3,0.2-0.5,0.3
			C44,63.8,44,63.4,43.9,63c0.2,0,0.3,0,0.5-0.1c0-0.2-0.1-0.4-0.2-0.5c-0.2,0-0.3,0-0.5,0.1c0-0.2-0.1-0.4-0.2-0.6
			c0.2,0,0.4,0,0.6,0c0.1,0,0.2,0,0.2-0.1c-0.7-0.9-1.9-2.2-2.2-2.5c0.5,0,0.8,0.2,1.1,0c0.3-0.2,2.4-1.7,3.2-2.3
			c0.6-0.4,1.8-1.4,3.1-2.3c-0.1-0.1-0.2-0.2-0.2-0.4c-0.2-0.4,0-0.5,0.4-0.7c0.2,0.4,0.2,0.5,0.4,0.7c0.3-0.2,0.6-0.4,0.9-0.5
			c1.1-0.6,2.4-1.4,3.4-2c-0.2-0.1-0.6-0.1-0.4-0.6c0.4-0.1,0.7,0,1,0.2c0.2-0.1,0.3-0.2,0.4-0.2c0-0.1,0-0.2,0.1-0.2
			c0,0,0.1,0.1,0.1,0.1c0.2-0.1,0.3-0.2,0.4-0.2c0.5-0.2,1.1-0.6,1.3-0.8c0,0,0.1-0.1,0.1-0.1C57.6,49.8,57.6,49.8,57.6,49.8
			 M21.9,48.5c-0.2-0.3-0.1-0.5,0-0.8C22.3,48.2,22.3,48.2,21.9,48.5 M22.2,50.5c-0.2-0.2-0.2-0.4,0-0.6
			C22.4,50.1,22.4,50.3,22.2,50.5 M23,43.6c0,0.1,0,0.1,0.1,0.2l0,0c0,0-0.1-0.1-0.2-0.2C22.9,43.7,22.9,43.7,23,43.6 M22.4,47.1
			c0.2,0,0.3,0.1,0.5,0.1c0,0.2-0.1,0.3-0.1,0.5c-0.2-0.2-0.3-0.4-0.4-0.5C22.4,47.2,22.4,47.2,22.4,47.1 M22.7,53
			c0-0.2,0-0.4,0.1-0.6C22.9,52.6,22.9,52.6,22.7,53 M26.4,57c-0.2-0.2-0.4-0.4-0.4-0.9c0.4,0.1,0.5,0.4,0.9,0.7
			C26.6,56.9,26.5,57,26.4,57 M27.2,57.3C27.1,57.3,27.1,57.3,27.2,57.3c-0.1,0,0-0.1,0-0.1C27.2,57.1,27.2,57.1,27.2,57.3
			C27.2,57.2,27.2,57.2,27.2,57.3 M41.2,59.3c0-0.1,0.1-0.2,0.2-0.2c0,0,0.1,0.1,0.2,0.2c-0.1,0.1-0.2,0.2-0.2,0.2
			C41.4,59.4,41.2,59.3,41.2,59.3 M41.8,62.8c-0.1,0-0.2-0.1-0.3-0.2c0,0,0,0,0-0.1c0,0,0.1-0.1,0.1-0.1c0.1,0,0.2,0.1,0.3,0.1
			C41.9,62.6,41.8,62.7,41.8,62.8 M42.7,61.6c0.2,0.1,0.6,0.1,0.6,0.5c-0.2,0.4-0.7,0-0.9,0.4c-0.2-0.3-0.5-0.4-0.5-0.9
			C42.1,61.6,42.4,61.4,42.7,61.6"/>
		<path class="st6" d="M23.3,39.8c0.3,0,0.5,0,0.7,0.3c-0.1-0.9-0.3-1.9-0.3-2.8c0-0.7,0-2.1-0.1-3.2c0,0-0.1,0.1-0.2,0.1l0,0l0,0
			c0.1,0.2,0.2,0.5,0.2,0.7c0,0.2,0,0.4-0.3,0.5c-0.1-0.4-0.3-0.8,0-1.2c0,0,0,0,0,0l0,0c0-0.2-0.1-0.3-0.2-0.4
			c0.1-0.1,0.2-0.2,0.4-0.3c0-0.4,0-0.7,0-0.9c0-1.2-0.2-1.6-0.2-2c0.1-0.4,0.5-0.7,0.3-0.9c-0.1-0.3-0.5-1.1-0.9-1
			c0,0-0.2,0.2-0.2,0.4c0,0.2,0,1,0,1.2c0,0.3,0,2.3,0,3c0,0.7,0.1,2.3,0.1,3.6c0,0.4,0,0.9,0,1.4c0,0,0.1,0.1,0.2,0.1
			c-0.1,0.2-0.1,0.3-0.2,0.4c0,0.7,0,1.5,0,2.1c0.1,0,0.2,0,0.4,0C23.2,40.5,23.3,40.2,23.3,39.8 M23.5,38.4c0,0,0.2,0.1,0.2,0.1
			c0,0.2,0,0.4-0.3,0.5c0-0.1-0.1-0.1-0.1-0.2C23.2,38.6,23.2,38.5,23.5,38.4 M22.8,32.6c-0.1-0.2-0.2-0.4-0.2-0.5
			c0-0.1,0-0.2,0.1-0.3C23.1,32.1,23.1,32.1,22.8,32.6"/>
		<path class="st6" d="M31.8,47.8c0-0.1,0-0.2-0.1-0.4c-0.2,0.2-0.3,0.4-0.4,0.5c-0.1,0-0.1,0.1-0.2,0.1c0.1,0.1,0.2,0.2,0.2,0.4
			C31.5,48.3,31.6,48.1,31.8,47.8"/>
	</g>
	<text transform="matrix(1 0 0 1 252.0269 26.6685)" class="st2 st4 st7">®</text>
</g>
</svg>
