<?xml version="1.0" encoding="utf-8"?>
<!-- Generator: Adobe Illustrator 23.0.3, SVG Export Plug-In . SVG Version: 6.00 Build 0)  -->
<svg version="1.1" id="Layer_1" xmlns="http://www.w3.org/2000/svg" xmlns:xlink="http://www.w3.org/1999/xlink" x="0px" y="0px"
	 viewBox="0 0 792 612" style="enable-background:new 0 0 792 612;" xml:space="preserve">
<style type="text/css">
	.st0{fill:#4C3128;}
</style>
<g>
	<g>
		<g>
			<g>
				<path class="st0" d="M343.6,555.4c-10.8-1.1-18.6-10.7-18.6-21.5V527c0-10.2,6.9-19.2,16.7-21.2c9.8-2,19.2,3.1,23.2,11.5
					c0.8,1.8-0.1,3.7-2,4.2l-3.4,1c-1.4,0.4-2.7-0.2-3.4-1.4c-2.3-4.5-7.4-7.2-12.8-6c-5.3,1.2-8.8,6.2-8.8,11.6v7.4
					c0,5.6,3.8,10.6,9.3,11.6c4.6,0.8,8.9-1.1,11.5-4.7c0.8-1.1,2.3-1.5,3.6-1l3.3,1.5c1.7,0.7,2.4,2.8,1.4,4.4
					C359.3,552.5,351.7,556.3,343.6,555.4z"/>
				<path class="st0" d="M432.6,528v5.1c0,12.1-9.8,22-22,22s-22.1-9.9-22.1-22V528c0-12.1,9.8-22,22.1-22
					C422.7,506,432.6,515.9,432.6,528z M423,528c0-6.9-5.6-12.4-12.5-12.4S398,521.2,398,528v5.1c0,6.9,5.6,12.4,12.5,12.4
					s12.5-5.6,12.5-12.4V528z"/>
				<path class="st0" d="M489.4,515.9H473c-1.5,0-2.6,1.1-2.6,2.6v4.3c0,1.5,1.1,2.6,2.6,2.6h8.6c1.5,0,2.6,1.1,2.6,2.6v4.4
					c0,1.5-1.1,2.6-2.6,2.6H473c-1.5,0-2.6,1.1-2.6,2.6v14.6c0,1.4-1.2,2.5-2.6,2.5h-4.4c-1.5,0-2.6-1.1-2.6-2.5V509
					c0-1.5,1.1-2.6,2.6-2.6h25.9c1.5,0,2.6,1.1,2.6,2.6v4.4C492,514.7,490.8,515.9,489.4,515.9z"/>
				<path class="st0" d="M548.8,515.9h-16.3c-1.5,0-2.6,1.1-2.6,2.6v4.3c0,1.5,1.1,2.6,2.6,2.6h8.6c1.5,0,2.6,1.1,2.6,2.6v4.4
					c0,1.5-1.1,2.6-2.6,2.6h-8.6c-1.5,0-2.6,1.1-2.6,2.6v14.6c0,1.4-1.2,2.5-2.6,2.5h-4.4c-1.5,0-2.6-1.1-2.6-2.5V509
					c0-1.5,1.1-2.6,2.6-2.6h25.9c1.5,0,2.6,1.1,2.6,2.6v4.4C551.4,514.7,550.2,515.9,548.8,515.9z"/>
				<path class="st0" d="M608.4,515.9h-16.2c-1.7,0-3,1.4-3,3v1.9c0,1.6,1.3,2.9,3,2.9h11.1c1.6,0,3,1.4,3,3v3.7
					c0,1.6-1.4,2.9-3,2.9h-11.1c-1.7,0-3,1.4-3,3v5.9c0,1.7,1.3,3,3,3h16.2c1.7,0,3,1.4,3,3v3.6c0,1.7-1.3,3-3,3h-25.7
					c-1.7,0-3-1.3-3-3v-42.3c0-1.6,1.3-3,3-3h25.7c1.7,0,3,1.4,3,3v3.6C611.4,514.6,610.1,515.9,608.4,515.9z"/>
				<path class="st0" d="M668.4,515.9h-16.2c-1.7,0-3,1.4-3,3v1.9c0,1.6,1.3,2.9,3,2.9h11.1c1.6,0,3,1.4,3,3v3.7
					c0,1.6-1.4,2.9-3,2.9h-11.1c-1.7,0-3,1.4-3,3v5.9c0,1.7,1.3,3,3,3h16.2c1.7,0,3,1.4,3,3v3.6c0,1.7-1.3,3-3,3h-25.7
					c-1.7,0-3-1.3-3-3v-42.3c0-1.6,1.3-3,3-3h25.7c1.7,0,3,1.4,3,3v3.6C671.4,514.6,670.1,515.9,668.4,515.9z"/>
			</g>
		</g>
	</g>
	<g>
		<path class="st0" d="M43.5,454c7.1,6.6,15.7,12.1,24.5,16.3c7.8,3.7,16.7,5,25.1,7.1c15.9,3.9,31.5,1.4,46.9-2.9
			c19.5-5.5,36.7-15.3,52.1-29.8c7.7,8,10.4,15.9,5.1,25.8c-5.3,10.1-9.9,20.6-14.6,31c-6.2,13.5-11.1,27.2-7.3,42.5
			c3.3,13.3,10.4,20.5,21.9,22.2c12.8,1.9,21.5-4.2,27.6-14.7c2.9-5,4.8-10.1,6.3-15.4c2.5-7.2,3-18,2.9-24
			c-0.3-13.3,0.4-26.8,3.1-39.8c2.1-10.4,8-20.1,12-30.2c4.9-12.5,29.9-76.1,36.5-92.5c1.1-2.8,4.1-4.9,6.2-7.3
			c1.8,3.1,4.9,6,5.3,9.2c2.8,23,5.2,46,7.4,69.1c0.6,6.1,2,11,8.6,12.6c6.5,1.5,18.1-3.4,20.3-8.2c6.1-13.6,11.3-27.6,18.6-40.6
			c11.4-20.4,24.1-39.9,36.2-59.9c0.9,0.5,1.9,1,2.8,1.4c-0.3,1.6-0.6,3.2-0.8,4.7c-3.5,20.5-8.9,40.8-10,61.4
			c-1.2,23.2,6.9,44.2,27.5,57.5c27.2,17.6,56.8,15.5,86.6,8.4c2.3-0.6,4.1-3.8,4.9-4.7c3.8,0.2,7.8,1.6,10.5,0.4
			c22.2-9.9,44.4-19.8,65.9-30.9c7.1-3.7,52.8-36.3,55.7-37.4c15.1-6.1,31.1-10.1,46.1-16.6c18-7.8,36.4-11.1,55.7-9.3
			c14.8,1.4,27,7.8,34.3,21.5c2.2,4.2,3.7,8.1-1.1,12.5c-2,1.8-2.2,7.2-1.2,10.2c0.7,2,5.5,4.3,7.7,3.7c3.1-0.9,7.5-4.2,7.7-6.8
			c0.5-5.9-0.2-12.3-2.2-17.8c-6.6-17.9-20.8-28.5-37.3-36.5c-27.3-13.2-55.4-12.7-82.7-1.6c-23.2,9.4-45.3,21.4-67.7,32.8
			c-24,12.2-47.2,26.1-71.7,37.4c-23.3,10.7-48,16.5-73.9,9c-16-4.6-26.8-15-28-31.3c-1.2-15.8,0.6-32,2.4-47.9
			c1.7-14.8,5.8-29.3,7.7-44.1c2.1-15.7-5-21.6-19.9-17.8c-0.9,0.2-2.4,0.8-2.5,0.7c-3.5-7.1-10.1-3.9-14.6-3.1
			c-11.6,2.1-24.6,2.3-29,17.7c-2.4,8.6-7,16.7-11.1,24.8c-7.4,14.7-15.2,29.2-22.8,43.8c-3.1-17-4.4-33.3-5.2-49.6
			c-0.6-12.5-2.8-15.4-14.5-17.9c-4.4-0.9-8.8-1.9-13.1-2.9c-16.3-3.8-18.2-3-25.2,12.8c-5.4,12.3-10.9,24.7-15.7,37.3
			c-4.5,11.9-7.7,24.3-12.4,36.1c-4.5,11.1-10.3,21.6-15.4,32.4c-3.3,7-6.3,14.1-9.7,21.8c-7.3-6.7-9-11.8-4.7-20
			c4.8-9.2,8.8-19.7,9.6-29.9c1.6-19.4,3.1-39.4,0.1-58.5c-0.4-2.6-1.1-5.1-1.8-7.5c-0.9-1.5-1.6-3.2-2-4.4c0.1,0,0.2-0.1,0.4-0.1
			c-6.9-16.9-21.5-29-37.8-38.7c-15.7-9.3-31.5-18.4-42.8-33.2c-12.9-17-12-37.8,2.4-53c12.3-12.9,32.6-14,49.1-2.7
			c13.3,9.2,17.4,27.6,8.3,39.4c-1.9,2.5-5.4,4.3-8.5,5.2c-0.8,0.2-3.4-3.9-4.3-6.4c-2.6-6.8-8-8.7-14.2-7.1
			c-6.3,1.6-10.5,6.7-8.6,13.2c1.4,5,4.7,10.3,8.8,13.4c12,9,31,6.3,42-2c16-12.1,15.6-29,12.2-46.4c-2.7-13.6-10.7-23-22.2-30.9
			c-11.3-7.8-34.8-21.9-63.3-8.9c-27,12.3-43.7,31.7-46.8,60.1c-1.6,14.9-3.7,29.2,27,58c14.4,13.5,32.8,22.4,48.5,34.7
			c8.8,6.9,16.7,15.6,22.7,25c9.5,14.9,6.5,44.3-4.1,53.3c-6-6.3-12.1-12.5-18-18.9c-16.2-17.5-32.7-34.9-55.2-44.3
			c-26.6-11.1-52.4-9.8-75.4,8.9c-22,17.8-26.8,41.9-21.1,68.4c2.1,9.6,5.8,19.2,10.4,27.8C30.8,439.3,36.6,447.5,43.5,454z
			 M213.5,503.6c-1.8,9.2-3.1,18.6-5.8,27.5c-0.7,2.4-2.5,7.3-8.7,5.3c-4.4-2.2-2.9-7.1-1.8-9.6c3.7-8.4,8.6-16.2,13-24.3
			C212.8,498.1,214.2,499.9,213.5,503.6z M52.6,373.2c1-3.2,7.9-12.8,10.4-15.2c8.3-8.2,18-10,29.2-8.1c15.3,2.6,28.2,10.2,39.6,20
			c13.5,11.6,26,24.5,39,36.7c5.5,5.1,4.5,9.6,0.3,15.3c-19.2,25.3-71.8,37.6-105.1,3.6C51.3,410.4,46.1,393.5,52.6,373.2z"/>
		<path class="st0" d="M238.4,282.8c8.6,4,15.9,2,24.2-6.8c4.1-4.4,7.9-9,12-13.7c10.5,15.9,17.1,15.7,32.7,3.5
			c4.4-3.5,7.9-8.1,12.6-12.9c1,13.5,1.2,13,13.2,11c8.8-1.4,10.1-7.1,11.9-14c4.5-17.2,8.8-34.6,14.5-51.4c3.3-9.7,9-18.7,20-24.6
			c-0.3,3.4-0.3,5.6-0.6,7.8c-3,21.8-6.2,43.5-8.9,65.3c-0.9,7.1,2.2,8.5,8.7,6.6c10.2-2.9,14-9.3,15-19.6
			c2-20.2,5.3-40.2,15.9-58.1c2.1-3.6,5.3-6.5,8-9.7c0.8,0.5,1.5,1,2.3,1.5c-0.3,2.8-0.6,5.6-1,8.4c-2.4,16.8-5.6,33.5-6.7,50.4
			c-0.4,5.4,3.7,14,8,15.9c5.3,2.3,13.2-0.4,19.6-2.1c3-0.8,5.3-4.5,7.7-7c2.9-3,5.7-6.1,9-9.6c1.8,12.4,7.1,16,16.5,10.6
			c3.9-2.3,6.7-7.9,8.2-12.6c6-18.9,10.5-38.4,17.2-57c2.8-7.8,10-14.1,15.1-21c0.9,0.6,1.8,1.1,2.7,1.7c-0.1,1.9-0.2,3.8-0.5,5.7
			c-3,20.6-6.1,41.1-8.9,61.7c-1.7,12.8,1.7,15.7,13.7,11.1c3.2-1.2,6.2-5.8,7-9.4c4.3-18.5,6.9-37.5,12.1-55.7
			c2.5-8.8,9.3-16.3,14.1-24.4c1.1,0.5,2.1,0.9,3.2,1.4c-0.2,2.4-0.2,4.8-0.7,7.1c-2.5,13.8-5.4,27.6-7.5,41.5
			c-0.9,6-1.5,12.5-0.1,18.3c3.1,13.2,18.3,16.9,29.6,6.7c7.5-6.8,13.3-15.3,19.9-23.1c0.6,0.6,1.5,1.3,2.2,2.3
			c12.6,16.1,26.1,18.5,43.6,7.7c13.9-8.6,22.9-21.1,28.2-36.1c5.9-16.8,10.8-34.1,15.9-51.2c3.8-12.6,6.2-14.9,18.3-15.5
			c-0.5,2.4-0.8,4.6-1.4,6.8c-4.8,19.6-10,39.2-14.5,58.9c-2.2,10,1.6,17.9,9.9,22.4c8,4.4,15,1.9,21.8-3.5
			c16.9-13.2,24.2-32,30.3-51.5c0.7-2.1-0.9-4.9-1.4-7.4c-1.9,1.9-4.2,3.5-5.5,5.7c-6.5,10.8-12.4,21.9-19.3,32.5
			c-1.5,2.4-4.9,6-8.7,4.4c-4.5-2.3-3.6-5.7-3.4-8.4c0.4-5.2,2.1-10.3,3.6-15.3c4.8-15.4,10.3-30.6,14.4-46.2
			c3-11.5-5.2-18.3-16.5-14.8c-6.6,2.1-13.2,4.3-20.1,6.5c-1.3-2.5-3.1-4.7-3.5-7.2c-1.3-7.7-5.8-7.3-11.7-5.5
			c-6.9,2.1-7.4,7.1-5.9,12.6c3.4,12.8,3.1,25.4,0.3,38.3c-3.7,17.3-6.8,35-20.1,47.8c-5.1,5-12.5,8.2-19.4,10.6
			c-5.6,1.9-10.8-0.2-12.6-7.3c-1.8-6.7-3.2-12.5,5.3-15.9c4-1.6,7.6-4.4,11.1-7.1c10.1-7.8,19.2-16.4,22.3-29.5
			c2.3-9.9-0.7-21.2-7.6-25.5c-8.2-5.1-15.4-0.8-21.9,3.7c-17.5,12.1-29.7,27.9-34.9,49c-2.9,11.6-6.3,23.2-10.7,34.3
			c-1.8,4.5-6.7,7.7-10.2,11.5c-1.1-0.5-2.3-1-3.4-1.5c0.2-6-0.4-12.1,0.7-17.8c3.1-16.3,7.5-32.3,10-48.7c0.9-2.4,0.9-2.4-0.1-5.1
			c-0.7-4.1-2.6-8.5-5.2-10.5c-3-2.3-11.1-1-14.9,1.7c-4.5,3.1-8.6,6.9-12.5,10.7c0.4,1-3,4.4-4.9,4.8c-1.2,1.2-2.4,2.4-3.7,3.5
			c-7.7-13.8-12.1-15.2-24.9-6.4c-3.8,2.6-7.4,5.9-10.2,9.5c-5.2,6.8-9.8,14.2-14.6,21.3c-0.4-0.2-0.9-0.5-1.3-0.7
			c1.9-8.9,3.8-17.8,5.8-27c-20.7,2.6-23.1,6.2-27.4,24.5c-4.5,19-10.8,37.7-17.5,56.1c0.5-0.1-7.9,15.5-13.6,16.7
			c-7.1-3.4-1.5-25.1,1.1-36.2c2.6-11.1,5.6-22.3,6.5-33.6c0.4-5.3-2.2-13.1-6.1-15.7c-3.2-2.1-11.4,0.3-15.6,3.3
			c-7,4.9-12.6,11.9-18.7,18c-6.4-13.9-14.3-15.9-26.2-6.3c-2,1.6-3.8,3.7-5.4,5.7c-6.2,8-12.4,16.1-18.6,24.2
			c0.2-5.7,2-10.7,2.6-15.9c0.3-2.6-1-6.6-2.9-7.8c-6.3-3.9-14.3-1.4-16.9,6.1c-3.6,10.5-5.1,21.7-8.6,32.3
			c-4.9,14.7-10.5,29.2-16.6,43.5c-1.3,3.1-4,5.6-6.7,8.1c-10.2,2.1-6.9-13.3-6.1-17.6c3.3-17.6,7.6-35,11.1-52.5
			c0.7-3.7-0.2-7.7-0.3-11.6c-4.5,0.3-9.2-0.1-13.4,1.2c-2.6,0.8-5.3,4-6.4,6.7c-2.9,7-5,14.4-7.2,21.7c-5.2,18-9.7,36.3-15.7,54
			c-1.6,4.6-7.7,12.9-11.8,11.4c-5.4-2.4-3.4-10-2.6-14.5c3.6-19.3,8.1-38.4,12.2-57.6c1-4.7,1.6-9.4,2.4-14.2
			c-11.7-0.8-21.6,0.1-24.4,12.2c-5.4,23.9-10.6,47.9-14.9,71.9C226.9,271.7,231.3,279.6,238.4,282.8z M639.7,112.7
			c3.9,10.6-5.8,24.9-20.7,30.7C620.3,126.4,628,114.9,639.7,112.7z"/>
		<path class="st0" d="M660.2,303.1c-0.6,17,15.2,26.8,31.9,21.4c21.7-7,37.4-21.2,45-42.5c2.7-7.6,1.2-17.1-0.1-25.4
			c-0.4-2.7-6.1-5.6-9.7-6.2c-2.1-0.3-7.1,4-6.9,5.8c0.4,3.6,2.6,8.5,5.6,10.1c6.4,3.6,6.9,8.4,3.4,13c-5.4,7.1-11.6,13.9-18.4,19.7
			c-6.4,5.5-14.5,11.2-23.1,5.8c-8.9-5.6-5.8-14.9-3.9-23.3c3.1-13.7,6.9-27.4,9-41.2c0.8-5.4-0.6-13-4.1-16.6
			c-4.7-4.8-11.8-2.7-17.8,1.2c-10.9,7.2-17.9,17.2-23.3,28.8c-1,2.2-2.7,4-4.1,6c-0.5-0.4-1-0.7-1.5-1.1c1.9-9.3,3.9-18.6,6-28.5
			c-3.4,0.6-5.4,1.1-7.4,1.2c-12.9,0.8-14.6,2.3-17.5,14.9c-2.1,9.1-4.2,18.3-7,27.2c-2.5,8.1-7.7,14-16.9,17.1
			c-0.2-5.8,0.1-10.7-0.6-15.6c-0.7-5.2-2.2-10.2-3.6-15.3c-4.4-16-16.8-21.2-31.2-13.1c-13.5,7.5-21.3,19.9-27.7,33.3
			c-0.8,1.6,1.1,4.4,1.2,4.9c-7.1,9-13.7,17.3-20.3,25.6c-3.2-9.1-4.2-17.1-5.2-25.1c-3.5-26.2-29.7-27.1-43-14.5
			c-21.6,20.4-31.1,46.4-28.6,75.4c2.2,24.6,22.4,33.1,43.6,20.5c11.3-6.7,17.6-16.9,21.8-28.8c3.3-9.2,7.3-17.9,18.3-21.1
			c1.2,5.5,2.4,10.6,3.5,15.8c4.1,19.2,21.7,26.9,38.1,17.8c12.8-7.1,20.8-18.1,25.1-31.6c3.4-10.5,9.9-17.3,20.7-22.3
			c-0.8,11.9-1.6,22.9-2.4,33.9c-0.5,7.1,1.8,10.1,9.7,8.9c8.6-1.3,12.6-5.7,13.9-14.2c1.5-10.1,3.3-20.3,6.2-30.1
			c5.2-17.7,11.3-35.1,28.6-48.8c-0.4,3.9-0.5,5.5-0.8,7C664.5,269.8,660.8,286.4,660.2,303.1z M487.8,343.5
			c-3.8,3.3-10.4,7.3-13.8,6c-3.9-1.6-7.1-8.4-7.8-13.4c-0.9-6.7,0.8-13.7,1.4-20.6c0.7-0.3,1.4-0.6,2.1-0.9
			c6.4,9.9,15.6,13.9,30,13.3C494.7,334.5,492,339.9,487.8,343.5z M495.7,312.1c-0.2,1.9-4.1,4.7-6.3,4.8
			c-8.1,0.4-13.9-5.5-15.4-14.8c-1.5-9.2,3-20.4,9.2-22.8c6.7-2.6,11.2,0.3,13.4,10.9C496.4,295.9,496.6,304.1,495.7,312.1z
			 M567,330.4c-5.5,5-12.5,2.6-13.7-4.8c-1.6-9.5-1.5-19.3-2.1-29c1.1-0.3,2.1-0.6,3.2-0.9c0.1,0.1,16.3,14.6,27.1,13
			c0.3,0.9,0.6,1.9,1,2.8C577.4,317.9,572.9,325,567,330.4z M586.8,292.7c-0.1,1.5-3.4,3.8-5.4,4c-7.7,0.7-14-4.7-16.9-16.8
			c1-3.5,1.9-10.5,5-16.4c1.5-2.9,7.2-5,10.9-4.8c2.3,0.1,6.1,4.9,6.4,7.9C587.6,275.2,587.3,284,586.8,292.7z"/>
	</g>
</g>
</svg>
